<svg width="193" height="54" viewBox="0 0 193 54" fill="none" xmlns="http://www.w3.org/2000/svg">
<path d="M178.873 0H11.1688C10.2182 0.0132828 9.26993 0.0943779 8.3321 0.242601C7.39274 0.390435 6.48348 0.676929 5.63726 1.09171C4.7964 1.50904 4.03045 2.05038 3.36792 2.69557C2.67648 3.32813 2.10121 4.06611 1.66592 4.87898C1.23559 5.68555 0.934423 6.54867 0.772367 7.43977C0.614087 8.33046 0.533441 9.23204 0.53125 10.1353L0.53125 43.83C0.545228 44.7333 0.630568 45.6343 0.786551 46.5255C0.948606 47.4166 1.24978 48.2797 1.6801 49.0863C2.11486 49.88 2.68521 50.5996 3.36792 51.2158C4.02725 51.8609 4.79398 52.3982 5.63726 52.8062C6.48348 53.221 7.39274 53.5075 8.3321 53.6553C9.26993 53.8035 10.2182 53.8846 11.1688 53.8979H181.71C182.66 53.8846 183.608 53.8035 184.546 53.6553C185.484 53.5013 186.392 53.2151 187.241 52.8062C188.519 52.1911 189.625 51.298 190.471 50.1995C191.316 49.1011 191.876 47.8284 192.106 46.4851C192.262 45.5939 192.347 44.6929 192.361 43.7895V10.0949C192.347 9.19158 192.262 8.29052 192.106 7.39934C191.949 6.50886 191.652 5.64572 191.227 4.83855C190.346 3.22034 188.958 1.90176 187.255 1.06475C186.399 0.673945 185.486 0.405969 184.546 0.269557C183.608 0.121334 182.66 0.0402385 181.71 0.0269557H178.873V0Z" fill="#A6A5A5"/>
<path d="M12.4722 52.725H11.1957C10.3132 52.7383 9.43099 52.6842 8.5576 52.5633C7.73467 52.407 6.94103 52.1345 6.20316 51.7546C5.47192 51.4056 4.80207 50.9509 4.21749 50.4068C3.63609 49.8584 3.15654 49.2204 2.79915 48.5199C2.39431 47.8209 2.10717 47.066 1.94815 46.2826C1.79691 45.45 1.71628 44.6072 1.70703 43.7623V10.1755C1.71628 9.33057 1.79691 8.48774 1.94815 7.65511C2.09377 6.86355 2.37148 6.09916 2.77078 5.39083C3.12817 4.69034 3.60772 4.05237 4.18912 3.50393C4.78232 2.95753 5.4619 2.50276 6.20316 2.15615C6.94373 1.79951 7.73795 1.554 8.5576 1.42834C9.42924 1.28607 10.3114 1.20946 11.1957 1.19922H181.694C182.578 1.21093 183.459 1.283 184.332 1.41486C185.156 1.54716 185.955 1.79707 186.701 2.15615C188.166 2.87082 189.361 4.00139 190.119 5.39083C190.486 6.09291 190.744 6.84203 190.885 7.61467C191.028 8.4573 191.109 9.30854 191.126 10.162V43.7623C191.11 44.5979 191.029 45.4312 190.885 46.2557C190.75 47.0384 190.492 47.7972 190.119 48.5065C189.356 49.9008 188.157 51.0357 186.686 51.7546C185.955 52.1368 185.165 52.4096 184.346 52.5633C183.47 52.7025 182.583 52.7747 181.694 52.7789H12.4722V52.725Z" fill="black"/>
<path d="M35.637 27.3617C35.6495 26.2361 35.9633 25.132 36.5489 24.1534C37.1345 23.1749 37.9726 22.3541 38.9843 21.7684C38.3415 20.8978 37.4942 20.1814 36.5094 19.6761C35.5247 19.1708 34.4296 18.8904 33.3109 18.8572C30.9281 18.6146 28.6163 20.205 27.3965 20.205C26.1767 20.205 24.2903 18.8572 22.2763 18.8572C20.975 18.8974 19.7068 19.2576 18.5957 19.9024C17.4845 20.5473 16.5683 21.4549 15.9363 22.5367C13.2699 27.1057 15.2555 33.6963 17.8794 37.3623C19.1985 39.1414 20.7161 41.1361 22.7443 41.0687C24.7726 41.0013 25.4534 39.8692 27.822 39.8692C30.1906 39.8692 30.8572 41.0687 32.9138 41.0283C34.9704 40.9878 36.3604 39.2222 37.6227 37.4297C38.57 36.1594 39.2978 34.7535 39.7786 33.265C38.5559 32.7743 37.5118 31.9533 36.7756 30.9039C36.0394 29.8546 35.6435 28.6229 35.637 27.3617Z" fill="white"/>
<path d="M31.7348 16.4577C32.8849 15.1448 33.4499 13.4569 33.3091 11.7539C31.551 11.9342 29.9273 12.7321 28.7563 13.9912C28.1866 14.608 27.7506 15.3254 27.4732 16.1025C27.1957 16.8796 27.0823 17.701 27.1394 18.5198C28.0195 18.528 28.8901 18.3468 29.686 17.9896C30.4819 17.6325 31.1823 17.1088 31.7348 16.4577Z" fill="white"/>
<path d="M60.5021 36.5781H53.7934L52.1765 41.1067H49.3398L55.7082 24.3672H58.6867L65.0125 41.1067H62.1758L60.5021 36.5781ZM54.4317 34.489H59.7504L57.2683 27.1436L54.4317 34.489Z" fill="white"/>
<path d="M78.7429 35.0424C78.7429 38.8296 76.6013 41.2691 73.3816 41.2691C72.5602 41.3021 71.7455 41.1149 71.0307 40.7288C70.3159 40.3427 69.7298 39.7733 69.3394 39.0857V45.1238H66.6445V28.9504H69.1975V30.999C69.6074 30.3204 70.2045 29.7609 70.9243 29.3809C71.6441 29.0009 72.4594 28.8148 73.2823 28.8426C76.6013 28.7752 78.7429 31.2147 78.7429 35.0424ZM76.0339 35.0424C76.0339 32.5759 74.6156 30.999 72.6441 30.999C70.6726 30.999 69.2685 32.6568 69.2685 35.0424C69.2685 37.4279 70.6868 39.1531 72.6441 39.1531C74.6014 39.1531 76.0339 37.4953 76.0339 35.0424Z" fill="white"/>
<path d="M92.8694 35.0423C92.8694 38.8296 90.7419 41.269 87.5223 41.269C86.7008 41.3021 85.8861 41.1148 85.1713 40.7287C84.4565 40.3426 83.8704 39.7732 83.48 39.0856V45.1237H80.7852V28.9503H83.3382V30.9989C83.7516 30.3202 84.3513 29.761 85.0733 29.3812C85.7953 29.0014 86.6124 28.8152 87.4372 28.8425C90.7277 28.7751 92.8694 31.2146 92.8694 35.0423ZM90.1604 35.0423C90.1604 32.5758 88.8271 30.9989 86.7705 30.9989C84.7139 30.9989 83.4091 32.6567 83.4091 35.0423C83.4091 37.4279 84.8274 39.0856 86.7705 39.0856C88.7137 39.0856 90.1604 37.4952 90.1604 35.0423Z" fill="white"/>
<path d="M102.214 36.3897C102.413 38.0474 104.101 39.0852 106.469 39.0852C108.838 39.0852 110.285 37.9935 110.285 36.4975C110.285 35.0014 109.32 34.4219 107.037 33.8828L104.753 33.3571C101.519 32.6159 100.03 31.1737 100.03 28.8421C100.03 25.9578 102.668 23.9766 106.427 23.9766C110.185 23.9766 112.71 25.9578 112.795 28.8421H110.086C109.93 27.1708 108.469 26.1465 106.356 26.1465C104.243 26.1465 102.782 27.1573 102.782 28.6399C102.782 29.8259 103.704 30.5268 105.973 31.0659L107.916 31.5107C111.533 32.3193 113.036 33.7076 113.036 36.1471C113.036 39.2874 110.398 41.2417 106.228 41.2417C102.328 41.2417 99.6897 39.3278 99.5195 36.2953L102.214 36.3897Z" fill="white"/>
<path d="M118.724 26.0117V28.896H121.163V30.8772H118.724V37.6161C118.724 38.6539 119.206 39.1391 120.284 39.1391C120.568 39.1391 120.865 39.1391 121.149 39.1391V41.1069C120.683 41.2012 120.207 41.2419 119.731 41.2282C117.121 41.2282 116.114 40.2982 116.114 37.9261V30.8772H114.199V28.896H116.071V26.0117H118.724Z" fill="white"/>
<path d="M122.582 35.0428C122.582 31.2016 124.951 28.7891 128.667 28.7891C132.383 28.7891 134.751 31.2016 134.751 35.0428C134.751 38.884 132.439 41.2561 128.667 41.2561C124.894 41.2561 122.582 38.857 122.582 35.0428ZM132.071 35.0428C132.071 32.4146 130.794 30.8512 128.667 30.8512C126.539 30.8512 125.348 32.3472 125.348 35.0428C125.348 37.7384 126.624 39.2344 128.752 39.2344C130.879 39.2344 132.071 37.644 132.071 35.0428Z" fill="white"/>
<path d="M136.938 28.8974H139.533V31C139.705 30.3523 140.106 29.7805 140.669 29.3805C141.232 28.9805 141.923 28.7766 142.625 28.8031C142.93 28.8004 143.235 28.8321 143.533 28.8974V31.2291C143.161 31.0923 142.768 31.0149 142.37 31C141.664 30.9556 140.97 31.1791 140.438 31.6214C139.906 32.0636 139.58 32.6885 139.533 33.3586V41.1083H136.938V28.8974Z" fill="white"/>
<path d="M155.644 37.5202C155.289 39.7305 153.02 41.2535 150.112 41.2535C146.382 41.2535 144.07 38.868 144.07 35.0537C144.07 31.2395 146.396 28.7461 150.013 28.7461C153.63 28.7461 155.8 31.0643 155.8 34.7572V35.6198H146.723V35.7681C146.644 36.608 146.919 37.4433 147.489 38.0903C148.058 38.7373 148.874 39.1431 149.758 39.2184H150.183C150.807 39.2849 151.436 39.153 151.973 38.8433C152.509 38.5335 152.922 38.0634 153.148 37.5067L155.644 37.5202ZM146.737 33.8812H153.162C153.209 33.1147 152.939 32.3612 152.408 31.7818C151.878 31.2025 151.13 30.8433 150.325 30.7812H150.084C149.224 30.7776 148.397 31.0971 147.783 31.6701C147.17 32.2431 146.819 33.0233 146.808 33.8407L146.737 33.8812Z" fill="white"/>
<path d="M51.1367 18.8672V11.1983H53.6188C54.0865 11.1791 54.5534 11.2518 54.9903 11.4118C55.4271 11.5718 55.8245 11.8157 56.1576 12.1283C56.4784 12.4442 56.7291 12.8182 56.8948 13.228C57.0605 13.6378 57.1378 14.0751 57.1221 14.5139V15.5652C57.147 16.0073 57.0732 16.4495 56.9055 16.8626C56.7379 17.2758 56.4802 17.6506 56.1494 17.9624C55.8185 18.2742 55.422 18.516 54.9859 18.672C54.5498 18.8279 54.0839 18.8945 53.6188 18.8672H51.1367ZM52.2288 12.0205V18.0451H53.6472C53.9754 18.0601 54.3031 18.0062 54.6071 17.8875C54.911 17.7687 55.1837 17.5878 55.4059 17.3577C55.8543 16.8602 56.0875 16.2196 56.0583 15.5652V14.5004C56.0896 13.8497 55.8559 13.2126 55.4059 12.7213C55.187 12.4865 54.9152 12.3016 54.6107 12.1802C54.3062 12.0589 53.9769 12.0043 53.6472 12.0205H52.2288Z" fill="white"/>
<path d="M60.893 18.9758C60.5204 18.9935 60.1483 18.9313 59.8046 18.7936C59.4608 18.6559 59.1541 18.4464 58.9073 18.1806C58.4073 17.6215 58.1444 16.9056 58.1697 16.1724V15.9028C58.1434 15.163 58.4118 14.441 58.9215 13.8811C59.1406 13.6287 59.4157 13.4253 59.727 13.2856C60.0384 13.1458 60.3784 13.073 60.7227 13.0725C61.0647 13.0481 61.408 13.0973 61.7272 13.2163C62.0464 13.3353 62.3333 13.5211 62.5666 13.7598C63.0047 14.2876 63.2264 14.9484 63.1907 15.6198V16.2667H59.2902C59.2839 16.7487 59.4378 17.2204 59.7299 17.6145C59.8678 17.785 60.0466 17.9217 60.2514 18.0131C60.4562 18.1045 60.681 18.1481 60.9071 18.1401C61.2398 18.1435 61.5707 18.0934 61.8858 17.9919C62.1488 17.8901 62.393 17.749 62.6091 17.5741L63.0346 18.248C62.7895 18.4673 62.5 18.637 62.1836 18.7466C61.7729 18.9012 61.3347 18.979 60.893 18.9758ZM60.7227 13.8811C60.5416 13.8837 60.3633 13.925 60.2013 14.002C60.0392 14.079 59.8975 14.1897 59.7866 14.3259C59.5192 14.6371 59.3562 15.0174 59.3186 15.4176H62.0844V15.2828C62.0977 14.9122 61.9721 14.5492 61.7298 14.2585C61.6031 14.127 61.4466 14.0247 61.2721 13.9593C61.0976 13.8939 60.9097 13.8672 60.7227 13.8811Z" fill="white"/>
<path d="M67.903 17.3582C67.9041 17.2495 67.8792 17.1421 67.83 17.044C67.7809 16.9459 67.7088 16.8598 67.6193 16.7921C67.3092 16.5902 66.9554 16.4567 66.584 16.4013C65.9981 16.3065 65.4385 16.1002 64.9387 15.7948C64.7612 15.6775 64.6176 15.5199 64.521 15.3362C64.4243 15.1525 64.3778 14.9487 64.3855 14.7435C64.3855 14.5133 64.4419 14.2863 64.5503 14.0805C64.6586 13.8746 64.8158 13.6955 65.0096 13.5574C65.4887 13.2354 66.061 13.0625 66.6478 13.0625C67.2346 13.0625 67.8069 13.2354 68.286 13.5574C68.4826 13.7066 68.6392 13.898 68.7428 14.1159C68.8463 14.3339 68.8939 14.572 68.8817 14.8109H67.8463C67.8426 14.6834 67.8119 14.558 67.7558 14.4422C67.6997 14.3264 67.6195 14.2225 67.5201 14.137C67.2799 13.9313 66.9636 13.8246 66.6407 13.8405C66.3307 13.8173 66.0226 13.9037 65.7755 14.0831C65.6879 14.1552 65.6174 14.2442 65.5685 14.344C65.5196 14.4439 65.4935 14.5525 65.4918 14.6626C65.4874 14.7651 65.5082 14.8673 65.5525 14.9608C65.5968 15.0544 65.6634 15.1369 65.7471 15.2017C66.0531 15.3846 66.3963 15.504 66.7542 15.5522C67.3562 15.6442 67.9313 15.8554 68.442 16.1721C68.6222 16.2908 68.7685 16.4503 68.8676 16.6362C68.9666 16.8221 69.0153 17.0286 69.0093 17.2369C69.0128 17.4762 68.9553 17.7127 68.8417 17.9263C68.7281 18.1399 68.5617 18.3242 68.3569 18.4634C67.8682 18.8005 67.272 18.9671 66.6691 18.9351C66.0167 18.9743 65.3729 18.7768 64.8678 18.3825C64.6637 18.232 64.5005 18.0372 64.3919 17.8144C64.2833 17.5916 64.2325 17.3474 64.2437 17.1021H65.2933C65.2886 17.2598 65.325 17.4161 65.3992 17.5572C65.4734 17.6983 65.5832 17.8198 65.7188 17.9108C66.0036 18.08 66.3332 18.1688 66.6691 18.1669C66.9894 18.1827 67.3069 18.1025 67.5768 17.9377C67.6778 17.8747 67.7605 17.7886 67.8175 17.6874C67.8745 17.5862 67.9039 17.473 67.903 17.3582Z" fill="white"/>
<path d="M72.7804 18.1651C73.1282 18.1717 73.4664 18.0566 73.7307 17.8416C73.8614 17.7524 73.9681 17.6351 74.042 17.4993C74.116 17.3634 74.1551 17.2129 74.1562 17.0599H75.1348C75.1475 17.3206 75.092 17.5801 74.9732 17.8154C74.8544 18.0506 74.676 18.2541 74.454 18.4077C73.9854 18.7807 73.3916 18.9816 72.7804 18.9738C72.4039 18.995 72.0274 18.9331 71.6804 18.7928C71.3334 18.6525 71.0254 18.4376 70.7805 18.1651C70.2954 17.6025 70.0298 16.8978 70.0288 16.1704V15.9008C70.006 15.1706 70.2517 14.4557 70.7238 13.8792C70.9687 13.6067 71.2767 13.3918 71.6237 13.2515C71.9707 13.1112 72.3472 13.0492 72.7236 13.0705C73.3537 13.0416 73.9703 13.2498 74.4398 13.65C74.6569 13.8303 74.8283 14.0549 74.9413 14.3069C75.0542 14.559 75.1058 14.832 75.0923 15.1056H74.1136C74.1143 14.9395 74.0794 14.7751 74.0111 14.6221C73.9429 14.4692 73.8426 14.3311 73.7165 14.2161C73.5883 14.095 73.4353 14.0001 73.2669 13.9375C73.0986 13.8749 72.9185 13.8459 72.7378 13.8522C72.4966 13.8339 72.2548 13.8796 72.0394 13.9843C71.824 14.0891 71.6435 14.2486 71.5181 14.4452C71.2581 14.8797 71.1305 15.3744 71.1493 15.8739V16.1704C71.1288 16.677 71.2513 17.1795 71.5039 17.626C71.6496 17.8129 71.8438 17.9608 72.0674 18.0552C72.2911 18.1497 72.5367 18.1876 72.7804 18.1651Z" fill="white"/>
<path d="M80.0573 18.8676C80.0188 18.7167 79.9904 18.5636 79.9722 18.4093C79.9583 18.2794 79.9583 18.1484 79.9722 18.0185C79.7605 18.2975 79.49 18.5316 79.178 18.7059C78.8589 18.8811 78.497 18.9741 78.1284 18.9754C77.8718 18.992 77.6144 18.9601 77.3709 18.8814C77.1274 18.8027 76.9028 18.6789 76.7101 18.5172C76.5401 18.3525 76.4082 18.156 76.3227 17.9402C76.2373 17.7244 76.2001 17.494 76.2137 17.2637C76.2065 17.0138 76.2665 16.7663 76.3882 16.5446C76.5098 16.3229 76.6889 16.1343 76.9086 15.9968C77.4714 15.6588 78.1301 15.4941 78.795 15.5251H79.9581V14.9725C79.9652 14.8256 79.9399 14.679 79.8837 14.542C79.8275 14.405 79.7417 14.2808 79.6318 14.1773C79.5095 14.0721 79.366 13.9916 79.21 13.9406C79.0539 13.8897 78.8887 13.8693 78.7241 13.8808C78.4173 13.866 78.1151 13.957 77.8731 14.1369C77.7706 14.2079 77.6874 14.3013 77.6307 14.4092C77.5739 14.517 77.5452 14.6363 77.5469 14.7568H76.4973C76.4946 14.5338 76.5502 14.3136 76.6592 14.116C76.7681 13.9184 76.9269 13.7496 77.1214 13.6247C77.5998 13.2647 78.1998 13.0827 78.8092 13.1125C79.3964 13.0845 79.9748 13.2566 80.4403 13.5978C80.641 13.7659 80.8008 13.9736 80.9086 14.2063C81.0163 14.4391 81.0695 14.6913 81.0644 14.9455V17.6411C81.0644 17.8433 81.0644 18.0454 81.0644 18.2341C81.0933 18.4209 81.1359 18.6056 81.192 18.7867L80.0573 18.8676ZM78.2419 18.0994C78.6178 18.1048 78.9873 18.0065 79.3056 17.8163C79.5862 17.6694 79.8061 17.4367 79.9297 17.1559V16.172H78.7099C78.326 16.1552 77.9485 16.2699 77.6462 16.4955C77.5255 16.5827 77.4272 16.6946 77.3584 16.823C77.2897 16.9513 77.2523 17.0928 77.249 17.2368C77.2442 17.3473 77.2645 17.4574 77.3085 17.5598C77.3526 17.6621 77.4194 17.7542 77.5043 17.8298C77.7038 18.0075 77.9685 18.1042 78.2419 18.0994Z" fill="white"/>
<path d="M85.446 14.0852H84.8787C84.6235 14.0803 84.3722 14.1458 84.1554 14.2739C83.9524 14.4139 83.7951 14.6054 83.7015 14.8265V18.8699H82.6094V13.1687H83.588L83.6873 14.0043C83.837 13.7327 84.0505 13.4975 84.3114 13.317C84.5672 13.1547 84.869 13.07 85.1766 13.0744H85.4177H85.5879L85.446 14.0852Z" fill="white"/>
<path d="M86.1566 16.171C86.1181 15.3844 86.3415 14.6063 86.7948 13.9471C86.9852 13.6768 87.2458 13.4577 87.5515 13.3113C87.8572 13.1649 88.1975 13.0961 88.5394 13.1115C88.8841 13.1031 89.2256 13.1773 89.5322 13.3271C89.8263 13.4701 90.0757 13.6838 90.2556 13.9471L90.3832 13.2058H91.3052V18.8665C91.3264 19.1762 91.278 19.4867 91.163 19.7772C91.0481 20.0677 90.8693 20.3316 90.6385 20.5513C90.0907 20.9712 89.3981 21.1825 88.6954 21.1443C88.3794 21.1402 88.065 21.0995 87.7593 21.023C87.4519 20.9608 87.1557 20.8564 86.8799 20.713L87.1636 19.9178C87.3853 20.0363 87.6243 20.1226 87.8728 20.1739C88.1381 20.2318 88.409 20.2634 88.6812 20.2682C88.8898 20.2855 89.1 20.2635 89.2996 20.2034C89.4992 20.1432 89.6843 20.0462 89.8443 19.9178C89.9688 19.7716 90.0617 19.6035 90.1177 19.4231C90.1737 19.2427 90.1916 19.0535 90.1705 18.8665V18.2331C89.9815 18.4628 89.7386 18.6474 89.4613 18.7722C89.1668 18.8959 88.8471 18.9557 88.5252 18.9474C88.1944 18.9612 87.865 18.8999 87.5641 18.7687C87.2632 18.6374 86.9995 18.44 86.7948 18.1926C86.3493 17.6213 86.1239 16.9218 86.1566 16.2114V16.171ZM87.2487 16.2788C87.2312 16.7544 87.3646 17.224 87.6317 17.6266C87.7621 17.8013 87.9375 17.9414 88.1411 18.0334C88.3447 18.1255 88.5697 18.1664 88.7947 18.1522C89.0857 18.1623 89.3729 18.087 89.6173 17.9366C89.8512 17.7805 90.0412 17.5722 90.1705 17.3301V14.7019C90.0408 14.4673 89.8504 14.2678 89.6173 14.1223C89.3769 13.9746 89.0951 13.8994 88.8089 13.9067C88.5714 13.8956 88.3353 13.9477 88.1273 14.0573C87.9193 14.1668 87.7476 14.3294 87.6317 14.5267C87.3489 15.0314 87.2164 15.6 87.2487 16.171V16.2788Z" fill="white"/>
<path d="M96.5247 18.8677C96.5247 18.6925 96.5247 18.5442 96.4396 18.4094C96.4325 18.2792 96.4325 18.1488 96.4396 18.0186C96.2233 18.2937 95.9537 18.527 95.6453 18.7059C95.3217 18.8829 94.9549 18.9759 94.5815 18.9755C94.3248 18.9936 94.0669 18.9624 93.8233 18.8837C93.5796 18.8049 93.3551 18.6803 93.1632 18.5172C92.9933 18.3526 92.8613 18.1561 92.7759 17.9403C92.6904 17.7245 92.6532 17.4941 92.6668 17.2638C92.6568 17.0135 92.7157 16.765 92.8376 16.5428C92.9594 16.3207 93.1401 16.1325 93.3618 15.9969C93.9245 15.6589 94.5833 15.4942 95.2482 15.5252H96.4396V14.9726C96.4467 14.8257 96.4214 14.6791 96.3652 14.5421C96.309 14.4051 96.2232 14.2809 96.1133 14.1774C95.991 14.0722 95.8475 13.9917 95.6915 13.9407C95.5354 13.8897 95.3702 13.8694 95.2056 13.8809C94.8984 13.8636 94.5954 13.9548 94.3546 14.1369C94.2503 14.2073 94.165 14.3002 94.1059 14.408C94.0467 14.5158 94.0153 14.6354 94.0142 14.7569H92.9788C92.9761 14.5339 93.0317 14.3137 93.1407 14.1161C93.2496 13.9185 93.4084 13.7497 93.6029 13.6248C94.0757 13.2646 94.6714 13.0823 95.2765 13.1126C95.868 13.0849 96.4508 13.2568 96.9218 13.5978C97.1225 13.766 97.2823 13.9737 97.3901 14.2064C97.4978 14.4391 97.551 14.6914 97.5459 14.9456V17.6412C97.5314 17.8386 97.5314 18.0368 97.5459 18.2342C97.5679 18.4222 97.6107 18.6074 97.6735 18.7868L96.5247 18.8677ZM94.7234 18.0994C95.0991 18.1033 95.4682 18.0051 95.7871 17.8164C96.0637 17.6648 96.2822 17.4335 96.4112 17.156V16.1721H95.1772C94.7976 16.1548 94.4244 16.2699 94.1277 16.4956C94.0046 16.5806 93.9045 16.6921 93.8355 16.8209C93.7665 16.9498 93.7305 17.0923 93.7305 17.2369C93.7257 17.3473 93.746 17.4575 93.79 17.5599C93.8341 17.6622 93.9009 17.7543 93.9858 17.8299C94.0838 17.9191 94.1994 17.9889 94.3261 18.0352C94.4527 18.0815 94.5878 18.1033 94.7234 18.0994Z" fill="white"/>
<path d="M101.915 14.0821H101.362C101.106 14.0771 100.855 14.1427 100.638 14.2707C100.433 14.4119 100.272 14.6027 100.17 14.8233V18.8667H99.0781V13.1656H100.057L100.17 14.0012C100.315 13.7266 100.53 13.4904 100.794 13.3138C101.047 13.1456 101.351 13.0605 101.659 13.0712H101.886H102.071L101.915 14.0821Z" fill="white"/>
<path d="M108.327 18.9753C107.952 18.9931 107.578 18.931 107.232 18.7934C106.886 18.6558 106.577 18.4462 106.327 18.1801C105.797 17.6316 105.499 16.9164 105.49 16.1719V15.9023C105.462 15.1598 105.736 14.4356 106.256 13.8806C106.475 13.6282 106.75 13.4249 107.062 13.2851C107.373 13.1453 107.713 13.0725 108.057 13.072C108.397 13.0487 108.738 13.0985 109.055 13.2174C109.371 13.3364 109.656 13.5216 109.887 13.7593C110.332 14.2835 110.555 14.947 110.511 15.6193V16.2662H106.682C106.675 16.7482 106.829 17.2199 107.121 17.614C107.259 17.7845 107.438 17.9212 107.643 18.0126C107.848 18.1041 108.072 18.1476 108.299 18.1396C108.627 18.1436 108.953 18.0934 109.263 17.9914C109.529 17.8959 109.775 17.7542 109.986 17.5736L110.412 18.2475C110.17 18.4639 109.886 18.6333 109.575 18.7461C109.178 18.8957 108.754 18.9734 108.327 18.9753ZM108.157 13.8806C107.975 13.8801 107.796 13.9201 107.633 13.9973C107.47 14.0746 107.329 14.1869 107.221 14.3254C106.954 14.6383 106.787 15.017 106.738 15.4171H109.575V15.2823C109.587 14.9142 109.467 14.5531 109.235 14.258C109.096 14.1105 108.921 13.9986 108.725 13.9327C108.53 13.8667 108.319 13.8488 108.114 13.8806H108.157Z" fill="white"/>
<path d="M112.764 13.1686L112.849 14.0177C113.036 13.7297 113.294 13.4892 113.601 13.3169C113.913 13.152 114.265 13.0683 114.622 13.0743C114.898 13.057 115.176 13.0962 115.435 13.1892C115.694 13.2822 115.93 13.4268 116.125 13.6134C116.519 14.0808 116.707 14.6749 116.65 15.2712V18.8697H115.558V15.2981C115.597 14.9144 115.486 14.5304 115.246 14.2199C115.118 14.1091 114.968 14.0245 114.805 13.9712C114.641 13.9179 114.468 13.897 114.296 13.9099C114.001 13.9029 113.71 13.9779 113.459 14.1255C113.217 14.2749 113.017 14.4785 112.877 14.7186V18.8697H111.785V13.1686H112.764Z" fill="white"/>
<path d="M122.239 18.8682H121.09V10.6602H122.182L122.239 18.8682Z" fill="white"/>
<path d="M127.599 18.8677C127.599 18.6925 127.599 18.5442 127.514 18.4094C127.507 18.2792 127.507 18.1488 127.514 18.0186C127.298 18.2937 127.028 18.527 126.72 18.7059C126.396 18.8829 126.029 18.9759 125.656 18.9755C125.399 18.9936 125.141 18.9624 124.897 18.8837C124.654 18.8049 124.429 18.6803 124.237 18.5172C124.067 18.3526 123.936 18.1561 123.85 17.9403C123.765 17.7245 123.727 17.4941 123.741 17.2638C123.734 17.0139 123.794 16.7664 123.916 16.5447C124.037 16.323 124.216 16.1344 124.436 15.9969C124.999 15.6589 125.657 15.4942 126.322 15.5252H127.514V14.9726C127.521 14.8257 127.496 14.6791 127.439 14.5421C127.383 14.4051 127.297 14.2809 127.188 14.1774C127.065 14.0722 126.922 13.9917 126.766 13.9407C126.61 13.8897 126.444 13.8694 126.28 13.8809C125.973 13.8636 125.67 13.9548 125.429 14.1369C125.325 14.2073 125.239 14.3002 125.18 14.408C125.121 14.5158 125.089 14.6354 125.088 14.7569H124.053C124.05 14.5339 124.106 14.3137 124.215 14.1161C124.324 13.9185 124.483 13.7497 124.677 13.6248C125.15 13.2646 125.746 13.0823 126.351 13.1126C126.942 13.0849 127.525 13.2568 127.996 13.5978C128.197 13.766 128.357 13.9737 128.464 14.2064C128.572 14.4391 128.625 14.6914 128.62 14.9456V17.6412C128.606 17.8386 128.606 18.0368 128.62 18.2342C128.649 18.421 128.692 18.6057 128.748 18.7868L127.599 18.8677ZM125.798 18.0994C126.174 18.1049 126.543 18.0066 126.861 17.8164C127.138 17.6648 127.356 17.4335 127.485 17.156V16.1721H126.251C125.872 16.1548 125.499 16.2699 125.202 16.4956C125.079 16.5806 124.979 16.6921 124.91 16.8209C124.841 16.9498 124.805 17.0923 124.805 17.2369C124.8 17.3473 124.82 17.4575 124.864 17.5599C124.908 17.6622 124.975 17.7543 125.06 17.8299C125.158 17.9191 125.274 17.9889 125.4 18.0352C125.527 18.0815 125.662 18.1033 125.798 18.0994Z" fill="white"/>
<path d="M51.1367 18.8672V11.1983H53.6188C54.0865 11.1791 54.5534 11.2518 54.9903 11.4118C55.4271 11.5718 55.8245 11.8157 56.1576 12.1283C56.4784 12.4442 56.7291 12.8182 56.8948 13.228C57.0605 13.6378 57.1378 14.0751 57.1221 14.5139V15.5652C57.147 16.0073 57.0732 16.4495 56.9055 16.8626C56.7379 17.2758 56.4802 17.6506 56.1494 17.9624C55.8185 18.2742 55.422 18.516 54.9859 18.672C54.5498 18.8279 54.0839 18.8945 53.6188 18.8672H51.1367ZM52.2288 12.0205V18.0451H53.6472C53.9754 18.0601 54.3031 18.0062 54.6071 17.8875C54.911 17.7687 55.1837 17.5878 55.4059 17.3577C55.8543 16.8602 56.0875 16.2196 56.0583 15.5652V14.5004C56.0896 13.8497 55.8559 13.2126 55.4059 12.7213C55.187 12.4865 54.9152 12.3016 54.6107 12.1802C54.3062 12.0589 53.9769 12.0043 53.6472 12.0205H52.2288Z" stroke="white" stroke-width="0.141832"/>
<path d="M60.893 18.9758C60.5204 18.9935 60.1483 18.9313 59.8046 18.7936C59.4608 18.6559 59.1541 18.4464 58.9073 18.1806C58.4073 17.6215 58.1444 16.9056 58.1697 16.1724V15.9028C58.1434 15.163 58.4118 14.441 58.9215 13.8811C59.1406 13.6287 59.4157 13.4253 59.727 13.2856C60.0384 13.1458 60.3784 13.073 60.7227 13.0725C61.0647 13.0481 61.408 13.0973 61.7272 13.2163C62.0464 13.3353 62.3333 13.5211 62.5666 13.7598C63.0047 14.2876 63.2264 14.9484 63.1907 15.6198V16.2667H59.2902C59.2839 16.7487 59.4378 17.2204 59.7299 17.6145C59.8678 17.785 60.0466 17.9217 60.2514 18.0131C60.4562 18.1045 60.681 18.1481 60.9071 18.1401C61.2398 18.1435 61.5707 18.0934 61.8858 17.9919C62.1488 17.8901 62.393 17.749 62.6091 17.5741L63.0346 18.248C62.7895 18.4673 62.5 18.637 62.1836 18.7466C61.7729 18.9012 61.3347 18.979 60.893 18.9758ZM60.7227 13.8811C60.5416 13.8837 60.3633 13.925 60.2013 14.002C60.0392 14.079 59.8975 14.1897 59.7866 14.3259C59.5192 14.6371 59.3562 15.0174 59.3186 15.4176H62.0844V15.2828C62.0977 14.9122 61.9721 14.5492 61.7298 14.2585C61.6031 14.127 61.4466 14.0247 61.2721 13.9593C61.0976 13.8939 60.9097 13.8672 60.7227 13.8811Z" stroke="white" stroke-width="0.141832"/>
<path d="M67.903 17.3582C67.9041 17.2495 67.8792 17.1421 67.83 17.044C67.7809 16.9459 67.7088 16.8598 67.6193 16.7921C67.3092 16.5902 66.9554 16.4567 66.584 16.4013C65.9981 16.3065 65.4385 16.1002 64.9387 15.7948C64.7612 15.6775 64.6176 15.5199 64.521 15.3362C64.4243 15.1525 64.3778 14.9487 64.3855 14.7435C64.3855 14.5133 64.4419 14.2863 64.5503 14.0805C64.6586 13.8746 64.8158 13.6955 65.0096 13.5574C65.4887 13.2354 66.061 13.0625 66.6478 13.0625C67.2346 13.0625 67.8069 13.2354 68.286 13.5574C68.4826 13.7066 68.6392 13.898 68.7428 14.1159C68.8463 14.3339 68.8939 14.572 68.8817 14.8109H67.8463C67.8426 14.6834 67.8119 14.558 67.7558 14.4422C67.6997 14.3264 67.6195 14.2225 67.5201 14.137C67.2799 13.9313 66.9636 13.8246 66.6407 13.8405C66.3307 13.8173 66.0226 13.9037 65.7755 14.0831C65.6879 14.1552 65.6174 14.2442 65.5685 14.344C65.5196 14.4439 65.4935 14.5525 65.4918 14.6626C65.4874 14.7651 65.5082 14.8673 65.5525 14.9608C65.5968 15.0544 65.6634 15.1369 65.7471 15.2017C66.0531 15.3846 66.3963 15.504 66.7542 15.5522C67.3562 15.6442 67.9313 15.8554 68.442 16.1721C68.6222 16.2908 68.7685 16.4503 68.8676 16.6362C68.9666 16.8221 69.0153 17.0286 69.0093 17.2369C69.0128 17.4762 68.9553 17.7127 68.8417 17.9263C68.7281 18.1399 68.5617 18.3242 68.3569 18.4634C67.8682 18.8005 67.272 18.9671 66.6691 18.9351C66.0167 18.9743 65.3729 18.7768 64.8678 18.3825C64.6637 18.232 64.5005 18.0372 64.3919 17.8144C64.2833 17.5916 64.2325 17.3474 64.2437 17.1021H65.2933C65.2886 17.2598 65.325 17.4161 65.3992 17.5572C65.4734 17.6983 65.5832 17.8198 65.7188 17.9108C66.0036 18.08 66.3332 18.1688 66.6691 18.1669C66.9894 18.1827 67.3069 18.1025 67.5768 17.9377C67.6778 17.8747 67.7605 17.7886 67.8175 17.6874C67.8745 17.5862 67.9039 17.473 67.903 17.3582Z" stroke="white" stroke-width="0.141832"/>
<path d="M72.7804 18.1651C73.1282 18.1717 73.4664 18.0566 73.7307 17.8416C73.8614 17.7524 73.9681 17.6351 74.042 17.4993C74.116 17.3634 74.1551 17.2129 74.1562 17.0599H75.1348C75.1475 17.3206 75.092 17.5801 74.9732 17.8154C74.8544 18.0506 74.676 18.2541 74.454 18.4077C73.9854 18.7807 73.3916 18.9816 72.7804 18.9738C72.4039 18.995 72.0274 18.9331 71.6804 18.7928C71.3334 18.6525 71.0254 18.4376 70.7805 18.1651C70.2954 17.6025 70.0298 16.8978 70.0288 16.1704V15.9008C70.006 15.1706 70.2517 14.4557 70.7238 13.8792C70.9687 13.6067 71.2767 13.3918 71.6237 13.2515C71.9707 13.1112 72.3472 13.0492 72.7236 13.0705C73.3537 13.0416 73.9703 13.2498 74.4398 13.65C74.6569 13.8303 74.8283 14.0549 74.9413 14.3069C75.0542 14.559 75.1058 14.832 75.0923 15.1056H74.1136C74.1143 14.9395 74.0794 14.7751 74.0111 14.6221C73.9429 14.4692 73.8426 14.3311 73.7165 14.2161C73.5883 14.095 73.4353 14.0001 73.2669 13.9375C73.0986 13.8749 72.9185 13.8459 72.7378 13.8522C72.4966 13.8339 72.2548 13.8796 72.0394 13.9843C71.824 14.0891 71.6435 14.2486 71.5181 14.4452C71.2581 14.8797 71.1305 15.3744 71.1493 15.8739V16.1704C71.1288 16.677 71.2513 17.1795 71.5039 17.626C71.6496 17.8129 71.8438 17.9608 72.0674 18.0552C72.2911 18.1497 72.5367 18.1876 72.7804 18.1651Z" stroke="white" stroke-width="0.141832"/>
<path d="M80.0573 18.8676C80.0188 18.7167 79.9904 18.5636 79.9722 18.4093C79.9583 18.2794 79.9583 18.1484 79.9722 18.0185C79.7605 18.2975 79.49 18.5316 79.178 18.7059C78.8589 18.8811 78.497 18.9741 78.1284 18.9754C77.8718 18.992 77.6144 18.9601 77.3709 18.8814C77.1274 18.8027 76.9028 18.6789 76.7101 18.5172C76.5401 18.3525 76.4082 18.156 76.3227 17.9402C76.2373 17.7244 76.2001 17.494 76.2137 17.2637C76.2065 17.0138 76.2665 16.7663 76.3882 16.5446C76.5098 16.3229 76.6889 16.1343 76.9086 15.9968C77.4714 15.6588 78.1301 15.4941 78.795 15.5251H79.9581V14.9725C79.9652 14.8256 79.9399 14.679 79.8837 14.542C79.8275 14.405 79.7417 14.2808 79.6318 14.1773C79.5095 14.0721 79.366 13.9916 79.21 13.9406C79.0539 13.8897 78.8887 13.8693 78.7241 13.8808C78.4173 13.866 78.1151 13.957 77.8731 14.1369C77.7706 14.2079 77.6874 14.3013 77.6307 14.4092C77.5739 14.517 77.5452 14.6363 77.5469 14.7568H76.4973C76.4946 14.5338 76.5502 14.3136 76.6592 14.116C76.7681 13.9184 76.9269 13.7496 77.1214 13.6247C77.5998 13.2647 78.1998 13.0827 78.8092 13.1125C79.3964 13.0845 79.9748 13.2566 80.4403 13.5978C80.641 13.7659 80.8008 13.9736 80.9086 14.2063C81.0163 14.4391 81.0695 14.6913 81.0644 14.9455V17.6411C81.0644 17.8433 81.0644 18.0454 81.0644 18.2341C81.0933 18.4209 81.1359 18.6056 81.192 18.7867L80.0573 18.8676ZM78.2419 18.0994C78.6178 18.1048 78.9873 18.0065 79.3056 17.8163C79.5862 17.6694 79.8061 17.4367 79.9297 17.1559V16.172H78.7099C78.326 16.1552 77.9485 16.2699 77.6462 16.4955C77.5255 16.5827 77.4272 16.6946 77.3584 16.823C77.2897 16.9513 77.2523 17.0928 77.249 17.2368C77.2442 17.3473 77.2645 17.4574 77.3085 17.5598C77.3526 17.6621 77.4194 17.7542 77.5043 17.8298C77.7038 18.0075 77.9685 18.1042 78.2419 18.0994Z" stroke="white" stroke-width="0.141832"/>
<path d="M85.446 14.0852H84.8787C84.6235 14.0803 84.3722 14.1458 84.1554 14.2739C83.9524 14.4139 83.7951 14.6054 83.7015 14.8265V18.8699H82.6094V13.1687H83.588L83.6873 14.0043C83.837 13.7327 84.0505 13.4975 84.3114 13.317C84.5672 13.1547 84.869 13.07 85.1766 13.0744H85.4177H85.5879L85.446 14.0852Z" stroke="white" stroke-width="0.141832"/>
<path d="M86.1566 16.171C86.1181 15.3844 86.3415 14.6063 86.7948 13.9471C86.9852 13.6768 87.2458 13.4577 87.5515 13.3113C87.8572 13.1649 88.1975 13.0961 88.5394 13.1115C88.8841 13.1031 89.2256 13.1773 89.5322 13.3271C89.8263 13.4701 90.0757 13.6838 90.2556 13.9471L90.3832 13.2058H91.3052V18.8665C91.3264 19.1762 91.278 19.4867 91.163 19.7772C91.0481 20.0677 90.8693 20.3316 90.6385 20.5513C90.0907 20.9712 89.3981 21.1825 88.6954 21.1443C88.3794 21.1402 88.065 21.0995 87.7593 21.023C87.4519 20.9608 87.1557 20.8564 86.8799 20.713L87.1636 19.9178C87.3853 20.0363 87.6243 20.1226 87.8728 20.1739C88.1381 20.2318 88.409 20.2634 88.6812 20.2682C88.8898 20.2855 89.1 20.2635 89.2996 20.2034C89.4992 20.1432 89.6843 20.0462 89.8443 19.9178C89.9688 19.7716 90.0617 19.6035 90.1177 19.4231C90.1737 19.2427 90.1916 19.0535 90.1705 18.8665V18.2331C89.9815 18.4628 89.7386 18.6474 89.4613 18.7722C89.1668 18.8959 88.8471 18.9557 88.5252 18.9474C88.1944 18.9612 87.865 18.8999 87.5641 18.7687C87.2632 18.6374 86.9995 18.44 86.7948 18.1926C86.3493 17.6213 86.1239 16.9218 86.1566 16.2114V16.171ZM87.2487 16.2788C87.2312 16.7544 87.3646 17.224 87.6317 17.6266C87.7621 17.8013 87.9375 17.9414 88.1411 18.0334C88.3447 18.1255 88.5697 18.1664 88.7947 18.1522C89.0857 18.1623 89.3729 18.087 89.6173 17.9366C89.8512 17.7805 90.0412 17.5722 90.1705 17.3301V14.7019C90.0408 14.4673 89.8504 14.2678 89.6173 14.1223C89.3769 13.9746 89.0951 13.8994 88.8089 13.9067C88.5714 13.8956 88.3353 13.9477 88.1273 14.0573C87.9193 14.1668 87.7476 14.3294 87.6317 14.5267C87.3489 15.0314 87.2164 15.6 87.2487 16.171V16.2788Z" stroke="white" stroke-width="0.141832"/>
<path d="M96.5247 18.8677C96.5247 18.6925 96.5247 18.5442 96.4396 18.4094C96.4325 18.2792 96.4325 18.1488 96.4396 18.0186C96.2233 18.2937 95.9537 18.527 95.6453 18.7059C95.3217 18.8829 94.9549 18.9759 94.5815 18.9755C94.3248 18.9936 94.0669 18.9624 93.8233 18.8837C93.5796 18.8049 93.3551 18.6803 93.1632 18.5172C92.9933 18.3526 92.8613 18.1561 92.7759 17.9403C92.6904 17.7245 92.6532 17.4941 92.6668 17.2638C92.6568 17.0135 92.7157 16.765 92.8376 16.5428C92.9594 16.3207 93.1401 16.1325 93.3618 15.9969C93.9245 15.6589 94.5833 15.4942 95.2482 15.5252H96.4396V14.9726C96.4467 14.8257 96.4214 14.6791 96.3652 14.5421C96.309 14.4051 96.2232 14.2809 96.1133 14.1774C95.991 14.0722 95.8475 13.9917 95.6915 13.9407C95.5354 13.8897 95.3702 13.8694 95.2056 13.8809C94.8984 13.8636 94.5954 13.9548 94.3546 14.1369C94.2503 14.2073 94.165 14.3002 94.1059 14.408C94.0467 14.5158 94.0153 14.6354 94.0142 14.7569H92.9788C92.9761 14.5339 93.0317 14.3137 93.1407 14.1161C93.2496 13.9185 93.4084 13.7497 93.6029 13.6248C94.0757 13.2646 94.6714 13.0823 95.2765 13.1126C95.868 13.0849 96.4508 13.2568 96.9218 13.5978C97.1225 13.766 97.2823 13.9737 97.3901 14.2064C97.4978 14.4391 97.551 14.6914 97.5459 14.9456V17.6412C97.5314 17.8386 97.5314 18.0368 97.5459 18.2342C97.5679 18.4222 97.6107 18.6074 97.6735 18.7868L96.5247 18.8677ZM94.7234 18.0994C95.0991 18.1033 95.4682 18.0051 95.7871 17.8164C96.0637 17.6648 96.2822 17.4335 96.4112 17.156V16.1721H95.1772C94.7976 16.1548 94.4244 16.2699 94.1277 16.4956C94.0046 16.5806 93.9045 16.6921 93.8355 16.8209C93.7665 16.9498 93.7305 17.0923 93.7305 17.2369C93.7257 17.3473 93.746 17.4575 93.79 17.5599C93.8341 17.6622 93.9009 17.7543 93.9858 17.8299C94.0838 17.9191 94.1994 17.9889 94.3261 18.0352C94.4527 18.0815 94.5878 18.1033 94.7234 18.0994Z" stroke="white" stroke-width="0.141832"/>
<path d="M101.915 14.0821H101.362C101.106 14.0771 100.855 14.1427 100.638 14.2707C100.433 14.4119 100.272 14.6027 100.17 14.8233V18.8667H99.0781V13.1656H100.057L100.17 14.0012C100.315 13.7266 100.53 13.4904 100.794 13.3138C101.047 13.1456 101.351 13.0605 101.659 13.0712H101.886H102.071L101.915 14.0821Z" stroke="white" stroke-width="0.141832"/>
<path d="M108.327 18.9753C107.952 18.9931 107.578 18.931 107.232 18.7934C106.886 18.6558 106.577 18.4462 106.327 18.1801C105.797 17.6316 105.499 16.9164 105.49 16.1719V15.9023C105.462 15.1598 105.736 14.4356 106.256 13.8806C106.475 13.6282 106.75 13.4249 107.062 13.2851C107.373 13.1453 107.713 13.0725 108.057 13.072C108.397 13.0487 108.738 13.0985 109.055 13.2174C109.371 13.3364 109.656 13.5216 109.887 13.7593C110.332 14.2835 110.555 14.947 110.511 15.6193V16.2662H106.682C106.675 16.7482 106.829 17.2199 107.121 17.614C107.259 17.7845 107.438 17.9212 107.643 18.0126C107.848 18.1041 108.072 18.1476 108.299 18.1396C108.627 18.1436 108.953 18.0934 109.263 17.9914C109.529 17.8959 109.775 17.7542 109.986 17.5736L110.412 18.2475C110.17 18.4639 109.886 18.6333 109.575 18.7461C109.178 18.8957 108.754 18.9734 108.327 18.9753ZM108.157 13.8806C107.975 13.8801 107.796 13.9201 107.633 13.9973C107.47 14.0746 107.329 14.1869 107.221 14.3254C106.954 14.6383 106.787 15.017 106.738 15.4171H109.575V15.2823C109.587 14.9142 109.467 14.5531 109.235 14.258C109.096 14.1105 108.921 13.9986 108.725 13.9327C108.53 13.8667 108.319 13.8488 108.114 13.8806H108.157Z" stroke="white" stroke-width="0.141832"/>
<path d="M112.764 13.1686L112.849 14.0177C113.036 13.7297 113.294 13.4892 113.601 13.3169C113.913 13.152 114.265 13.0683 114.622 13.0743C114.898 13.057 115.176 13.0962 115.435 13.1892C115.694 13.2822 115.93 13.4268 116.125 13.6134C116.519 14.0808 116.707 14.6749 116.65 15.2712V18.8697H115.558V15.2981C115.597 14.9144 115.486 14.5304 115.246 14.2199C115.118 14.1091 114.968 14.0245 114.805 13.9712C114.641 13.9179 114.468 13.897 114.296 13.9099C114.001 13.9029 113.71 13.9779 113.459 14.1255C113.217 14.2749 113.017 14.4785 112.877 14.7186V18.8697H111.785V13.1686H112.764Z" stroke="white" stroke-width="0.141832"/>
<path d="M122.239 18.8682H121.09V10.6602H122.182L122.239 18.8682Z" stroke="white" stroke-width="0.141832"/>
<path d="M127.599 18.8677C127.599 18.6925 127.599 18.5442 127.514 18.4094C127.507 18.2792 127.507 18.1488 127.514 18.0186C127.298 18.2937 127.028 18.527 126.72 18.7059C126.396 18.8829 126.029 18.9759 125.656 18.9755C125.399 18.9936 125.141 18.9624 124.897 18.8837C124.654 18.8049 124.429 18.6803 124.237 18.5172C124.067 18.3526 123.936 18.1561 123.85 17.9403C123.765 17.7245 123.727 17.4941 123.741 17.2638C123.734 17.0139 123.794 16.7664 123.916 16.5447C124.037 16.323 124.216 16.1344 124.436 15.9969C124.999 15.6589 125.657 15.4942 126.322 15.5252H127.514V14.9726C127.521 14.8257 127.496 14.6791 127.439 14.5421C127.383 14.4051 127.297 14.2809 127.188 14.1774C127.065 14.0722 126.922 13.9917 126.766 13.9407C126.61 13.8897 126.444 13.8694 126.28 13.8809C125.973 13.8636 125.67 13.9548 125.429 14.1369C125.325 14.2073 125.239 14.3002 125.18 14.408C125.121 14.5158 125.089 14.6354 125.088 14.7569H124.053C124.05 14.5339 124.106 14.3137 124.215 14.1161C124.324 13.9185 124.483 13.7497 124.677 13.6248C125.15 13.2646 125.746 13.0823 126.351 13.1126C126.942 13.0849 127.525 13.2568 127.996 13.5978C128.197 13.766 128.357 13.9737 128.464 14.2064C128.572 14.4391 128.625 14.6914 128.62 14.9456V17.6412C128.606 17.8386 128.606 18.0368 128.62 18.2342C128.649 18.421 128.692 18.6057 128.748 18.7868L127.599 18.8677ZM125.798 18.0994C126.174 18.1049 126.543 18.0066 126.861 17.8164C127.138 17.6648 127.356 17.4335 127.485 17.156V16.1721H126.251C125.872 16.1548 125.499 16.2699 125.202 16.4956C125.079 16.5806 124.979 16.6921 124.91 16.8209C124.841 16.9498 124.805 17.0923 124.805 17.2369C124.8 17.3473 124.82 17.4575 124.864 17.5599C124.908 17.6622 124.975 17.7543 125.06 17.8299C125.158 17.9191 125.274 17.9889 125.4 18.0352C125.527 18.0815 125.662 18.1033 125.798 18.0994Z" stroke="white" stroke-width="0.141832"/>
</svg>
