<svg width="405" height="43" viewBox="0 0 405 43" fill="none" xmlns="http://www.w3.org/2000/svg">
<path d="M54.6098 2.44922H59.0478V26.4706H50.1719V2.44922H54.6098Z" fill="#B5121B"/>
<path d="M103.432 14.7904L103.029 2.44922H112.108V26.4706H104.441L91.5289 14.1371L91.9323 26.4783H83.0547V2.44922H90.5203L103.432 14.7904Z" fill="#B5121B"/>
<path d="M155.285 21.4008V26.4687H136.117V2.44922H155.285V7.51715H145.197V11.7056H154.276V16.7735H144.995V21.4008H155.285Z" fill="#B5121B"/>
<path d="M266.655 2.66797H257.374L245.672 26.6894H254.55L256.163 22.7232H267.663L269.277 26.6894H278.155L266.655 2.66797ZM258.181 18.3144L262.013 8.83762L265.844 18.3144H258.181Z" fill="#B5121B"/>
<path d="M20.5128 30.8695C18.2379 30.7835 16.0824 29.7358 14.501 27.9475C12.9195 26.1592 12.0356 23.77 12.0356 21.2836C12.0356 18.7972 12.9195 16.408 14.501 14.6196C16.0824 12.8313 18.2379 11.7837 20.5128 11.6976C21.6772 11.7037 22.8292 11.9607 23.9026 12.4539C24.9759 12.947 25.9497 13.6667 26.768 14.5717L31.2059 3.55254C29.0612 1.98271 26.6488 0.901095 24.1128 0.372292C21.5768 -0.15651 18.9693 -0.121655 16.446 0.474775C13.9226 1.0712 11.5352 2.21698 9.42621 3.84367C7.31725 5.47036 5.53004 7.54461 4.17131 9.94254C2.75234 12.2916 1.77718 14.9265 1.30306 17.6928C0.828944 20.459 0.865412 23.3009 1.41033 26.0515C1.95524 28.8022 2.99763 31.4062 4.47632 33.7109C5.95501 36.0156 7.84022 37.9745 10.0213 39.4726C13.2121 41.727 16.9217 42.9492 20.7215 42.9981H190.397V21.4024L202.905 36.1674L216.019 21.4024V43H404.451L363.092 12.5867L374.189 2.00821H364.303L352.803 13.0274V2.00821H343.925V26.4626H352.803V14.7748L374.996 31.3026H226.907V2.66924H217.223L202.697 18.9767L188.574 2.4489H178.89V31.0995L20.5128 30.8695Z" fill="#B5121B"/>
<path d="M321.328 18.977C320.614 17.2055 319.319 15.7904 317.697 15.0108C318.827 14.4924 319.803 13.6408 320.516 12.5512C321.228 11.4616 321.649 10.1771 321.731 8.84113C321.719 7.2251 321.153 5.67281 320.145 4.48983C319.137 3.30686 317.76 2.57889 316.285 2.44922H297.723V26.4706H306.6V16.5532C307.566 16.2254 308.599 16.2179 309.568 16.5317C310.538 16.8455 311.401 17.4664 312.047 18.316C313.804 20.882 315.23 23.7001 316.283 26.691H324.959L321.328 18.977ZM310.433 13.0277H306.399V6.63577H310.433C311.229 6.65715 311.988 7.01223 312.551 7.6275C313.114 8.24277 313.439 9.07109 313.459 9.94094C313.431 10.7882 313.098 11.589 312.53 12.1677C311.963 12.7463 311.209 13.0556 310.433 13.0277Z" fill="#B5121B"/>
</svg>
