<svg width="193" height="59" viewBox="0 0 193 59" fill="none" xmlns="http://www.w3.org/2000/svg">
<path d="M184.884 0H7.59168C3.67505 0 0.5 3.28442 0.5 7.33597V51.3518C0.5 55.4033 3.67505 58.6877 7.59168 58.6877H184.884C188.8 58.6877 191.975 55.4033 191.975 51.3518V7.33597C191.975 3.28442 188.8 0 184.884 0Z" fill="black"/>
<path d="M185.239 1.17375C186.819 1.17375 188.334 1.82299 189.451 2.97862C190.569 4.13426 191.196 5.70165 191.196 7.33597V51.3518C191.196 52.9861 190.569 54.5535 189.451 55.7091C188.334 56.8647 186.819 57.514 185.239 57.514H7.94715C6.36725 57.514 4.85206 56.8647 3.73491 55.7091C2.61775 54.5535 1.99014 52.9861 1.99014 51.3518V7.33597C1.99014 5.70165 2.61775 4.13426 3.73491 2.97862C4.85206 1.82299 6.36725 1.17375 7.94715 1.17375H185.239ZM185.239 0H7.94715C6.06632 0 4.26252 0.772894 2.93257 2.14865C1.60263 3.52441 0.855469 5.39035 0.855469 7.33597V51.3518C0.855469 53.2974 1.60263 55.1633 2.93257 56.5391C4.26252 57.9148 6.06632 58.6877 7.94715 58.6877H185.239C187.12 58.6877 188.924 57.9148 190.254 56.5391C191.584 55.1633 192.331 53.2974 192.331 51.3518V7.33597C192.331 5.39035 191.584 3.52441 190.254 2.14865C188.924 0.772894 187.12 0 185.239 0Z" fill="#A6A5A5"/>
<path d="M97.5019 31.9116C96.3063 31.9116 95.1375 32.2786 94.1436 32.966C93.1497 33.6535 92.3752 34.6305 91.9183 35.7734C91.4615 36.9163 91.3426 38.1738 91.5769 39.3866C91.8112 40.5995 92.3881 41.7131 93.2345 42.5867C94.0809 43.4602 95.1588 44.0543 96.3318 44.2938C97.5048 44.5333 98.7201 44.4074 99.8239 43.9321C100.928 43.4568 101.87 42.6534 102.533 41.6236C103.195 40.5939 103.547 39.384 103.544 38.1472C103.567 36.5153 102.963 34.9408 101.865 33.769C100.766 32.5973 99.2637 31.924 97.6863 31.897L97.5019 31.9116ZM97.5019 41.9326C96.7802 41.9857 96.0594 41.8164 95.4307 41.4459C94.802 41.0754 94.2936 40.5205 93.9697 39.8512C93.6459 39.1819 93.5211 38.4283 93.6111 37.6856C93.7012 36.943 94.002 36.2446 94.4757 35.6788C94.9493 35.113 95.5745 34.7051 96.2722 34.5068C96.9698 34.3084 97.7087 34.3284 98.3954 34.5644C99.082 34.8003 99.6857 35.2415 100.13 35.8322C100.574 36.4229 100.839 37.1366 100.892 37.8831C100.892 37.9711 100.892 38.0592 100.892 38.1619C100.93 39.1159 100.603 40.0472 99.9819 40.7533C99.3604 41.4593 98.4947 41.8831 97.5728 41.9326H97.5019ZM84.283 31.9116C83.088 31.9145 81.9206 32.2839 80.9286 32.9731C79.9365 33.6623 79.1643 34.6404 78.7096 35.7836C78.2549 36.9268 78.1381 38.1838 78.3739 39.3956C78.6098 40.6075 79.1878 41.7198 80.0348 42.5918C80.8818 43.4639 81.9597 44.0565 83.1323 44.2948C84.3049 44.5332 85.5195 44.4064 86.6225 43.9307C87.7255 43.455 88.6673 42.6516 89.3289 41.6221C89.9905 40.5927 90.3421 39.3834 90.3393 38.1472C90.3524 37.3386 90.2112 36.5354 89.9238 35.7833C89.6363 35.0313 89.2082 34.3454 88.6641 33.7648C88.12 33.1842 87.4704 32.7203 86.7527 32.3998C86.035 32.0793 85.2632 31.9084 84.4815 31.897L84.283 31.9116ZM84.283 41.9326C83.5616 41.9828 82.8421 41.8109 82.2151 41.4385C81.5881 41.0661 81.0818 40.5099 80.7601 39.8401C80.4384 39.1703 80.3157 38.417 80.4075 37.6752C80.4993 36.9333 80.8014 36.2362 81.2758 35.6719C81.7503 35.1075 82.3756 34.7012 83.0731 34.5041C83.7705 34.3071 84.5088 34.3282 85.1946 34.5647C85.8805 34.8013 86.4832 35.2427 86.9268 35.8333C87.3704 36.4239 87.6349 37.1372 87.687 37.8831V38.1472C87.7294 39.1023 87.4037 40.0357 86.7815 40.7426C86.1592 41.4496 85.2913 41.8723 84.3681 41.9179L84.283 41.9326ZM68.582 33.8337V36.4746H74.7092C74.6099 37.7176 74.1105 38.8903 73.2909 39.8051C72.6779 40.447 71.943 40.9505 71.1326 41.2838C70.3221 41.6171 69.4537 41.7731 68.582 41.7418C66.7764 41.7418 65.0448 40.9998 63.768 39.6791C62.4913 38.3584 61.774 36.5671 61.774 34.6993C61.774 32.8315 62.4913 31.0402 63.768 29.7195C65.0448 28.3988 66.7764 27.6568 68.582 27.6568C70.3046 27.6299 71.9673 28.3105 73.2058 29.5494L75.0071 27.6861C74.1631 26.8192 73.1597 26.1362 72.0561 25.6775C70.9525 25.2189 69.7711 24.9939 68.582 25.0158C67.3234 24.9512 66.0652 25.1498 64.8824 25.5996C63.6997 26.0493 62.6167 26.7412 61.6983 27.6337C60.7799 28.5262 60.0448 29.6011 59.537 30.7941C59.0292 31.9872 58.7592 33.2738 58.743 34.5773C58.7267 35.8807 58.9647 37.1741 59.4426 38.3803C59.9206 39.5864 60.6287 40.6805 61.5246 41.5972C62.4205 42.5139 63.4859 43.2343 64.657 43.7154C65.8282 44.1966 67.0811 44.4285 68.3409 44.3974H68.582C69.793 44.4464 71.0004 44.2299 72.1248 43.7621C73.2492 43.2943 74.2653 42.5858 75.1063 41.6831C76.6009 39.9929 77.3997 37.7666 77.3331 35.4769C77.3352 34.9258 77.2877 34.3757 77.1913 33.8337H68.582ZM132.847 35.8877C132.477 34.762 131.785 33.7791 130.863 33.069C129.941 32.359 128.833 31.9554 127.684 31.9116C126.931 31.9115 126.185 32.0666 125.49 32.368C124.795 32.6693 124.165 33.1108 123.637 33.6667C123.109 34.2226 122.693 34.8817 122.414 35.6057C122.135 36.3296 121.998 37.1038 122.011 37.8831C122.011 37.9711 122.011 38.0592 122.011 38.1619C121.994 38.9634 122.13 39.7606 122.411 40.5079C122.692 41.2551 123.112 41.9377 123.648 42.5168C124.184 43.0959 124.825 43.56 125.535 43.8827C126.244 44.2054 127.008 44.3803 127.783 44.3974H127.996C128.992 44.4038 129.974 44.1537 130.853 43.6696C131.732 43.1855 132.48 42.4826 133.031 41.6245L130.975 40.1573C130.664 40.685 130.226 41.1205 129.704 41.4213C129.182 41.7222 128.594 41.8781 127.996 41.8739C127.381 41.9022 126.772 41.7363 126.25 41.3983C125.728 41.0602 125.318 40.566 125.074 39.9812L133.13 36.5333L132.847 35.8877ZM124.62 37.9711C124.566 37.0626 124.863 36.1689 125.445 35.4866C126.028 34.8042 126.848 34.3891 127.727 34.3325C128.184 34.3013 128.64 34.4098 129.039 34.6446C129.437 34.8793 129.76 35.23 129.968 35.653L124.62 37.9711ZM118.054 44.016H120.706V25.6761H118.054V44.016ZM113.713 33.3055H113.614C113.208 32.8565 112.716 32.5005 112.168 32.2604C111.621 32.0203 111.031 31.9015 110.437 31.9116C108.887 31.9894 107.425 32.6811 106.355 33.8433C105.285 35.0056 104.688 36.5493 104.688 38.1545C104.688 39.7598 105.285 41.3035 106.355 42.4658C107.425 43.628 108.887 44.3197 110.437 44.3974C111.038 44.4039 111.632 44.2762 112.181 44.023C112.729 43.7698 113.218 43.397 113.614 42.9303H113.699V43.8252C113.699 46.2168 112.465 47.4932 110.48 47.4932C109.818 47.4772 109.177 47.258 108.636 46.8635C108.095 46.4689 107.681 45.9169 107.444 45.2778L105.133 46.2608C105.569 47.3563 106.31 48.2928 107.262 48.9512C108.214 49.6095 109.334 49.9601 110.48 49.9581C113.586 49.9581 116.153 48.0654 116.153 43.4584V32.2784H113.713V33.3055ZM110.678 41.9326C109.749 41.8726 108.877 41.4485 108.239 40.7466C107.602 40.0446 107.247 39.1177 107.247 38.1545C107.247 37.1914 107.602 36.2644 108.239 35.5625C108.877 34.8606 109.749 34.4365 110.678 34.3765C111.129 34.3916 111.572 34.4992 111.983 34.693C112.393 34.8869 112.762 35.1632 113.068 35.5058C113.374 35.8485 113.612 36.2507 113.766 36.689C113.921 37.1273 113.99 37.5931 113.969 38.0592C113.965 38.0884 113.965 38.118 113.969 38.1472C114.039 39.0692 113.753 39.9825 113.174 40.6867C112.594 41.3909 111.768 41.8284 110.877 41.9032L110.678 41.9326ZM145.257 25.6761H138.903V44.016H141.555V37.0615H145.257C146.001 37.1397 146.751 37.0609 147.464 36.83C148.177 36.599 148.838 36.2207 149.405 35.7179C149.972 35.2151 150.435 34.5984 150.765 33.905C151.095 33.2117 151.286 32.4563 151.325 31.6845C151.365 30.9128 151.252 30.1408 150.994 29.4153C150.737 28.6899 150.339 28.0261 149.826 27.4643C149.313 26.9025 148.695 26.4543 148.01 26.1469C147.325 25.8395 146.586 25.6793 145.839 25.6761C145.645 25.6614 145.451 25.6614 145.257 25.6761ZM145.257 34.4792H141.555V28.229H145.314C146.119 28.2095 146.898 28.5217 147.481 29.0967C148.064 29.6718 148.401 30.4627 148.42 31.2954C148.439 32.1281 148.137 32.9345 147.581 33.5371C147.025 34.1396 146.261 34.4891 145.456 34.5086H145.314L145.257 34.4792ZM161.625 31.8383C160.659 31.7786 159.698 32.012 158.859 32.5098C158.02 33.0077 157.34 33.7483 156.902 34.6406L159.242 35.6676C159.543 35.1625 159.985 34.7635 160.51 34.5236C161.034 34.2836 161.617 34.2138 162.181 34.3235C162.745 34.4331 163.263 34.7171 163.668 35.1378C164.072 35.5585 164.344 36.0962 164.447 36.68V36.8707C163.596 36.4002 162.647 36.1533 161.682 36.1518C159.157 36.1518 156.576 37.619 156.576 40.2893C156.631 41.405 157.108 42.4535 157.904 43.2084C158.7 43.9633 159.751 44.3641 160.831 44.3241H160.944C161.622 44.3815 162.303 44.2465 162.913 43.9337C163.523 43.6209 164.038 43.1421 164.405 42.5488H164.504V44.016H167.057V36.9588C167.057 33.7016 164.717 31.8823 161.682 31.8823L161.625 31.8383ZM161.299 41.8885C160.433 41.8885 159.228 41.4484 159.228 40.3333C159.228 38.8661 160.731 38.382 162.065 38.382C162.907 38.3485 163.741 38.5567 164.476 38.9835C164.389 39.784 164.023 40.5241 163.446 41.0646C162.868 41.6051 162.12 41.9085 161.341 41.9179L161.299 41.8885ZM176.376 32.2784L173.34 40.2306H173.255L170.092 32.2784H167.256L171.979 43.3998L169.284 49.5766H172.121L179.312 32.2784H176.376ZM152.548 44.016H155.186V25.6761H152.533L152.548 44.016Z" fill="white"/>
<path d="M15.6497 11.0636C15.1874 11.6375 14.9541 12.3721 14.9973 13.1177V45.572C14.9541 46.3177 15.1874 47.0523 15.6497 47.6261L15.7632 47.7435L33.3364 29.5649V29.1395L15.7632 10.9609L15.6497 11.0636Z" fill="url(#paint0_linear_16_219)"/>
<path d="M39.1937 35.6256L33.3359 29.5661V29.1406L39.1937 23.0664L39.3213 23.1544L46.2712 27.2332C48.2568 28.3923 48.2568 30.2997 46.2712 31.4734L39.3213 35.5375L39.1937 35.6256Z" fill="url(#paint1_linear_16_219)"/>
<path d="M39.3205 35.5353L33.3351 29.3438L15.6484 47.625C16.0515 47.9952 16.5669 48.208 17.1056 48.2268C17.6443 48.2455 18.1724 48.069 18.5986 47.7277L39.3205 35.55" fill="url(#paint2_linear_16_219)"/>
<path d="M39.3219 23.1532L18.6 10.9755C18.18 10.6278 17.6542 10.4458 17.1164 10.4619C16.5787 10.478 16.0639 10.6913 15.6641 11.0636L33.3365 29.3448L39.3219 23.1532Z" fill="url(#paint3_linear_16_219)"/>
<path opacity="0.2" d="M39.1943 35.4062L18.6 47.5106C18.1915 47.8296 17.6935 48.0021 17.1817 48.0021C16.6698 48.0021 16.1719 47.8296 15.7633 47.5106L15.6641 47.6133L15.7633 47.7307C16.1737 48.0451 16.671 48.2149 17.1817 48.2149C17.6924 48.2149 18.1896 48.0451 18.6 47.7307L39.3219 35.553L39.1943 35.4062Z" fill="black"/>
<path opacity="0.12" d="M15.6497 47.4242C15.1903 46.843 14.9575 46.1051 14.9973 45.3555V45.5755C14.9541 46.3212 15.1874 47.0558 15.6497 47.6296L15.7632 47.5269L15.6497 47.4242Z" fill="black"/>
<path opacity="0.12" d="M46.2557 31.2511L39.1641 35.4033L39.2917 35.55L46.2274 31.4712C46.6422 31.291 47.0022 30.9981 47.2694 30.6236C47.5365 30.2491 47.7009 29.8069 47.745 29.3438C47.6599 29.7607 47.4806 30.1509 47.2218 30.4824C46.9629 30.8139 46.6319 31.0773 46.2557 31.2511Z" fill="black"/>
<path opacity="0.25" d="M18.5987 11.1813L46.2562 27.4378C46.6311 27.6135 46.961 27.8775 47.2196 28.2087C47.4782 28.5399 47.6583 28.9291 47.7455 29.3451C47.7059 28.8863 47.5464 28.4473 47.2841 28.0751C47.0217 27.7029 46.6664 27.4116 46.2562 27.2324L18.5987 10.9759C16.613 9.80214 14.9961 10.7705 14.9961 13.118V13.3381C14.9961 10.9906 16.6272 10.0222 18.5987 11.1813Z" fill="white"/>
<path d="M59.4023 19.0749V10.2717H61.9979C62.5647 10.24 63.1317 10.3321 63.6619 10.542C64.192 10.752 64.6735 11.0751 65.0749 11.4904C65.4763 11.9056 65.7886 12.4036 65.9916 12.9521C66.1946 13.5005 66.2836 14.087 66.2529 14.6733C66.2836 15.2597 66.1946 15.8462 65.9916 16.3946C65.7886 16.943 65.4763 17.4411 65.0749 17.8563C64.6735 18.2715 64.192 18.5947 63.6619 18.8046C63.1317 19.0146 62.5647 19.1067 61.9979 19.0749H59.4023ZM60.4945 17.9892H61.9979C62.4253 18.0139 62.853 17.9486 63.2553 17.7973C63.6576 17.646 64.026 17.4118 64.3382 17.1089C64.6389 16.788 64.8712 16.4054 65.0202 15.9859C65.1692 15.5664 65.2316 15.1193 65.2033 14.6733C65.2703 13.8665 65.0261 13.0649 64.5238 12.4437C64.0216 11.8225 63.3022 11.432 62.5227 11.3575H60.4945V17.9892Z" fill="white" stroke="white" stroke-width="0.283664" stroke-miterlimit="10"/>
<path d="M67.8555 19.0727V10.2695H68.9476V19.0727H67.8555Z" fill="white" stroke="white" stroke-width="0.283664" stroke-miterlimit="10"/>
<path d="M73.3027 19.2673C72.6499 19.2653 72.0143 19.0496 71.4873 18.6511C70.8999 18.2359 70.4847 17.6075 70.3242 16.8905L71.3171 16.465C71.4292 16.9468 71.6877 17.3787 72.0546 17.6974C72.3948 18.0114 72.8327 18.1885 73.2885 18.1963C73.7253 18.2006 74.1523 18.062 74.5083 17.8001C74.6701 17.6837 74.8014 17.5276 74.8905 17.3458C74.9796 17.164 75.0237 16.9622 75.0189 16.7584C75.029 16.5393 74.9879 16.3208 74.899 16.1216C74.8101 15.9224 74.6761 15.7482 74.5083 15.614C74.0217 15.2767 73.4852 15.024 72.9198 14.8657C72.2823 14.6941 71.6939 14.3671 71.2036 13.9121C71.0098 13.7256 70.8575 13.4978 70.7571 13.2445C70.6567 12.9912 70.6107 12.7184 70.6221 12.4449C70.6262 12.1226 70.6996 11.8053 70.8369 11.516C70.9743 11.2266 71.1722 10.9726 71.4163 10.7723C71.93 10.349 72.5615 10.1077 73.2178 10.084C73.8741 10.0602 74.5204 10.2552 75.0615 10.6402C75.4661 10.9457 75.7725 11.37 75.9408 11.858L74.948 12.2835C74.8583 11.9767 74.674 11.7087 74.4232 11.5205C74.1071 11.2853 73.7276 11.1588 73.3382 11.1588C72.9488 11.1588 72.5693 11.2853 72.2532 11.5205C72.1156 11.6221 72.0039 11.7565 71.9273 11.9123C71.8508 12.0681 71.8117 12.2408 71.8135 12.4155C71.8162 12.5781 71.8546 12.7379 71.9259 12.8828C71.9972 13.0277 72.0994 13.1539 72.2248 13.2518C72.5923 13.5189 72.9995 13.7221 73.4304 13.8534C73.7878 13.9685 74.1383 14.1057 74.4799 14.2642C74.7789 14.4067 75.0639 14.5786 75.3309 14.7777C75.6117 14.9905 75.8361 15.2731 75.9834 15.5993C76.1357 15.9498 76.2131 16.3302 76.2103 16.7144C76.2118 17.1112 76.1244 17.5029 75.955 17.8588C75.7917 18.1788 75.5586 18.455 75.2742 18.6658C74.7083 19.0594 74.0414 19.2689 73.3595 19.2673H73.3027Z" fill="white" stroke="white" stroke-width="0.283664" stroke-miterlimit="10"/>
<path d="M78.8055 19.0733H77.6992V10.2702H80.5359C81.2309 10.2547 81.9037 10.5236 82.4081 11.0184C82.6586 11.2411 82.8632 11.5137 83.0094 11.8201C83.1556 12.1265 83.2406 12.4602 83.2591 12.8014C83.2776 13.1425 83.2294 13.484 83.1173 13.8054C83.0052 14.1268 82.8315 14.4215 82.6067 14.6717L82.479 14.8038C81.9746 15.2986 81.3018 15.5675 80.6068 15.5521H78.8055V19.0733ZM78.8055 14.4223H80.6352C80.8415 14.4321 81.0474 14.3952 81.2385 14.3141C81.4296 14.233 81.6012 14.1097 81.7415 13.9528C81.8787 13.816 81.9879 13.6519 82.0625 13.4704C82.1371 13.2889 82.1755 13.0937 82.1755 12.8964C82.1755 12.6992 82.1371 12.504 82.0625 12.3225C81.9879 12.141 81.8787 11.9769 81.7415 11.8401C81.6026 11.6805 81.4315 11.5545 81.2403 11.4708C81.0492 11.3872 80.8426 11.3479 80.6352 11.3559H78.8055V14.4223Z" fill="white" stroke="white" stroke-width="0.283664" stroke-miterlimit="10"/>
<path d="M91.6125 17.9449C90.781 18.7988 89.6568 19.2779 88.4851 19.2779C87.3134 19.2779 86.1893 18.7988 85.3577 17.9449C84.558 17.0591 84.1133 15.8924 84.1133 14.6804C84.1133 13.4685 84.558 12.3017 85.3577 11.4159C85.7673 10.9918 86.2537 10.6554 86.7892 10.4258C87.3246 10.1963 87.8984 10.0781 88.478 10.0781C89.0576 10.0781 89.6315 10.1963 90.1669 10.4258C90.7023 10.6554 91.1887 10.9918 91.5984 11.4159C92.4033 12.296 92.8519 13.4615 92.8519 14.6731C92.8519 15.8846 92.4033 17.0502 91.5984 17.9302L91.6125 17.9449ZM86.1661 17.2113C86.7861 17.8377 87.6184 18.1884 88.4851 18.1884C89.3518 18.1884 90.1841 17.8377 90.8041 17.2113C91.4081 16.5164 91.7423 15.6149 91.7423 14.6804C91.7423 13.7459 91.4081 12.8444 90.8041 12.1495C90.1876 11.5161 89.354 11.1606 88.4851 11.1606C87.6162 11.1606 86.7826 11.5161 86.1661 12.1495C85.5621 12.8444 85.2279 13.7459 85.2279 14.6804C85.2279 15.6149 85.5621 16.5164 86.1661 17.2113Z" fill="white" stroke="white" stroke-width="0.283664" stroke-miterlimit="10"/>
<path d="M94.3945 19.0727V10.2695H95.7278L99.8693 17.1213V15.4194V10.2695H100.961V19.0727H99.7842L95.5292 11.8981V13.5854V19.0727H94.3945Z" fill="white" stroke="white" stroke-width="0.283664" stroke-miterlimit="10"/>
<path d="M102.902 19.0727V10.2695H104.037V19.0727H102.902Z" fill="white" stroke="white" stroke-width="0.283664" stroke-miterlimit="10"/>
<path d="M105.953 19.0732V10.27H109.031C109.673 10.2569 110.294 10.5045 110.761 10.9596C110.994 11.1721 111.179 11.4344 111.304 11.7283C111.429 12.0222 111.49 12.3406 111.485 12.6616C111.497 13.058 111.388 13.4483 111.173 13.7766C110.967 14.0955 110.676 14.3454 110.336 14.4955C110.75 14.6313 111.112 14.8982 111.371 15.2585C111.636 15.6159 111.776 16.0555 111.768 16.5056C111.776 16.8438 111.711 17.1796 111.578 17.4889C111.446 17.7983 111.249 18.0737 111.002 18.2956C110.51 18.7694 109.859 19.0272 109.187 19.0145L105.953 19.0732ZM107.045 14.0407H109.031C109.293 14.0512 109.552 13.9806 109.775 13.8378C109.999 13.6951 110.176 13.4868 110.284 13.2395C110.392 12.9922 110.426 12.7172 110.382 12.4496C110.339 12.182 110.219 11.9339 110.038 11.7372C109.917 11.5992 109.767 11.4908 109.6 11.4198C109.434 11.3488 109.254 11.3169 109.073 11.3264H107.045V14.0407ZM107.045 17.9875H109.244C109.436 17.9973 109.628 17.9615 109.805 17.8826C109.982 17.8038 110.14 17.6841 110.265 17.5326C110.515 17.2643 110.657 16.9076 110.662 16.5349C110.662 16.1458 110.513 15.7726 110.247 15.4975C109.981 15.2223 109.62 15.0677 109.244 15.0677H107.045V17.9875Z" fill="white" stroke="white" stroke-width="0.283664" stroke-miterlimit="10"/>
<path d="M113.242 19.0727V10.2695H114.334V17.987H118.022V19.0727H113.242Z" fill="white" stroke="white" stroke-width="0.283664" stroke-miterlimit="10"/>
<path d="M124.363 11.3553H120.491V14.1429H123.994V15.1993H120.491V17.987H124.363V19.0727H119.398V10.2695H124.363V11.3553Z" fill="white" stroke="white" stroke-width="0.283664" stroke-miterlimit="10"/>
<path d="M133.909 11.3553H130.023V14.1429H133.527V15.1993H130.023V17.987H133.909V19.0727H128.945V10.2695H133.909V11.3553Z" fill="white" stroke="white" stroke-width="0.283664" stroke-miterlimit="10"/>
<path d="M135.609 19.0727V10.2695H136.943L141.084 17.1213V15.4194V10.2695H142.176V19.0727H141.027L136.659 11.8981V13.5854V19.0727H135.609Z" fill="white" stroke="white" stroke-width="0.283664" stroke-miterlimit="10"/>
<defs>
<linearGradient id="paint0_linear_16_219" x1="74.1976" y1="90.1" x2="46.0174" y2="82.9669" gradientUnits="userSpaceOnUse">
<stop stop-color="#4596D2"/>
<stop offset="0.01" stop-color="#4597D3"/>
<stop offset="0.26" stop-color="#3EB9EB"/>
<stop offset="0.51" stop-color="#49C1ED"/>
<stop offset="0.76" stop-color="#5AC3E6"/>
<stop offset="1" stop-color="#5EC4E4"/>
</linearGradient>
<linearGradient id="paint1_linear_16_219" x1="48.1695" y1="26.377" x2="13.8392" y2="26.377" gradientUnits="userSpaceOnUse">
<stop stop-color="#FFE006"/>
<stop offset="0.41" stop-color="#FBBC0D"/>
<stop offset="0.78" stop-color="#F6A316"/>
<stop offset="1" stop-color="#F59A1A"/>
</linearGradient>
<linearGradient id="paint2_linear_16_219" x1="146.855" y1="166.354" x2="123.173" y2="127.715" gradientUnits="userSpaceOnUse">
<stop stop-color="#E84049"/>
<stop offset="1" stop-color="#C40F62"/>
</linearGradient>
<linearGradient id="paint3_linear_16_219" x1="-130.579" y1="179.415" x2="-120.155" y2="162.208" gradientUnits="userSpaceOnUse">
<stop stop-color="#30A071"/>
<stop offset="0.07" stop-color="#2CA771"/>
<stop offset="0.48" stop-color="#4DB26F"/>
<stop offset="0.8" stop-color="#5FB568"/>
<stop offset="1" stop-color="#63B664"/>
</linearGradient>
</defs>
</svg>
