<svg width="18" height="28" viewBox="0 0 18 28" fill="none" xmlns="http://www.w3.org/2000/svg">
<path d="M17.5704 3.51185V0.751136C17.5704 0.51185 17.2954 0.379707 17.1097 0.526136L1.00965 13.1011C0.872858 13.2075 0.762171 13.3437 0.686031 13.4994C0.609892 13.6551 0.570312 13.8261 0.570312 13.9994C0.570312 14.1726 0.609892 14.3436 0.686031 14.4993C0.762171 14.655 0.872858 14.7912 1.00965 14.8976L17.1097 27.4726C17.2989 27.619 17.5704 27.4869 17.5704 27.2476V24.4869C17.5704 24.3119 17.4882 24.144 17.3525 24.0369L4.49536 14.0011L17.3525 3.96185C17.4882 3.85471 17.5704 3.68685 17.5704 3.51185Z" fill="white"/>
</svg>
