<svg width="18" height="28" viewBox="0 0 18 28" fill="none" xmlns="http://www.w3.org/2000/svg">
<path d="M17.0607 13.1008L0.960717 0.525837C0.918647 0.492716 0.868088 0.472133 0.814848 0.466451C0.761607 0.460769 0.707843 0.470219 0.659731 0.493716C0.611619 0.517212 0.57111 0.553803 0.542856 0.599284C0.514602 0.644766 0.499749 0.697294 0.500003 0.750837V3.51155C0.500003 3.68655 0.582146 3.85441 0.717861 3.96155L13.575 14.0008L0.717861 24.0401C0.578575 24.1473 0.500003 24.3151 0.500003 24.4901V27.2508C0.500003 27.4901 0.775003 27.6223 0.960717 27.4758L17.0607 14.9008C17.1976 14.7941 17.3083 14.6576 17.3844 14.5016C17.4605 14.3456 17.5001 14.1744 17.5001 14.0008C17.5001 13.8273 17.4605 13.656 17.3844 13.5001C17.3083 13.3441 17.1976 13.2076 17.0607 13.1008Z" fill="white"/>
</svg>
