<svg width="193" height="58" viewBox="0 0 193 58" fill="none" xmlns="http://www.w3.org/2000/svg">
<path d="M178.808 0H12.4934C12.0572 0 11.6266 0.0110355 11.1941 0.0183925C10.24 0.0303785 9.2881 0.113997 8.3467 0.268531C7.40736 0.426555 6.49747 0.724189 5.6478 1.15137C4.79915 1.58154 4.02325 2.14001 3.34798 2.8067C2.67103 3.47301 2.10693 4.24312 1.67741 5.08737C1.24461 5.93168 0.944762 6.83665 0.788291 7.77084C0.629501 8.70146 0.544476 9.64297 0.533993 10.5867C0.511719 11.019 0.511719 11.4512 0.511719 11.8834V45.1445C0.511719 45.5822 0.511719 46.0052 0.533993 46.443C0.544476 47.3867 0.629501 48.3283 0.788291 49.2589C0.943974 50.1919 1.24321 51.0956 1.67555 51.9387C2.10476 52.7804 2.66895 53.5475 3.34612 54.2101C4.01799 54.8808 4.79456 55.4397 5.64595 55.8655C6.49575 56.2935 7.40548 56.593 8.34485 56.7538C9.28579 56.9068 10.237 56.9898 11.1904 57.0021C11.6303 57.0113 12.0609 57.0168 12.4897 57.0168H180.34C180.772 57.0168 181.216 57.0169 181.639 57.0021C182.591 56.9905 183.54 56.9075 184.479 56.7538C185.422 56.5919 186.335 56.2925 187.189 55.8655C188.039 55.4393 188.815 54.8804 189.487 54.2101C190.16 53.5439 190.723 52.7775 191.157 51.9387C191.586 51.0949 191.882 50.1912 192.035 49.2589C192.194 48.328 192.282 47.3868 192.299 46.443V45.1445C192.31 44.6332 192.31 44.1255 192.31 43.605V13.4265C192.31 12.9116 192.31 12.4002 192.299 11.8908V10.6033C192.294 9.65483 192.218 8.70804 192.071 7.77084C191.917 6.83865 191.621 5.93506 191.193 5.09105C190.313 3.39678 188.919 2.01878 187.207 1.15137C186.353 0.72528 185.44 0.427729 184.497 0.268531C183.559 0.113988 182.609 0.030978 181.657 0.0202318C181.225 0.0202318 180.781 0.00551776 180.358 0.00183925L178.808 0Z" fill="#B6B6B6"/>
<path d="M12.5046 55.7919C12.0721 55.7919 11.6507 55.7919 11.2201 55.7772C10.3307 55.765 9.44354 55.6876 8.56574 55.5455C7.74741 55.4062 6.95471 55.1465 6.21395 54.7748C5.47673 54.4056 4.80474 53.9205 4.22411 53.3384C3.63599 52.7663 3.14629 52.1028 2.77442 51.374C2.3988 50.6402 2.13901 49.8537 2.0041 49.0419C1.85701 48.1694 1.77758 47.287 1.76651 46.4025C1.76651 46.1064 1.74609 45.1151 1.74609 45.1151V11.8834C1.74609 11.8834 1.75909 10.9105 1.76651 10.6235C1.77912 9.74079 1.85979 8.86029 2.00782 7.98972C2.14331 7.17543 2.40372 6.38646 2.77999 5.65019C3.15076 4.92001 3.63845 4.25416 4.22411 3.67851C4.80814 3.09898 5.48019 2.61366 6.2158 2.24022C6.95417 1.86949 7.74438 1.61035 8.56017 1.47141C9.44122 1.33161 10.3316 1.25722 11.2238 1.24886L12.5064 1.23047H180.341L181.641 1.24886C182.523 1.25728 183.404 1.33167 184.275 1.47141C185.101 1.60919 185.901 1.86896 186.649 2.24206C188.123 2.9944 189.322 4.18482 190.079 5.64652C190.448 6.37805 190.704 7.16055 190.838 7.96765C190.986 8.84575 191.069 9.73344 191.085 10.6235V11.8761C191.096 12.4039 191.096 12.906 191.096 13.4118V43.605C191.096 44.1163 191.096 44.6166 191.085 45.1187V46.4264C191.07 47.3006 190.988 48.1723 190.842 49.0345C190.71 49.8525 190.452 50.6454 190.075 51.3851C189.312 52.8378 188.115 54.0217 186.647 54.7748C185.9 55.148 185.1 55.4078 184.275 55.5455C183.397 55.6878 182.51 55.7646 181.62 55.7754C181.205 55.7846 180.768 55.7901 180.347 55.7901H178.806L12.5046 55.7919Z" fill="black"/>
<path d="M60.1523 10.7511H65.2513L65.1084 12.114H61.8563V14.196H64.9228V15.467H61.8563V17.7752H65.294L65.1696 19.151H60.1579L60.1523 10.7511ZM68.6983 14.8637L66.0643 10.7511H67.991L69.6616 13.6167L71.4194 10.7511H73.2942L70.677 14.8122L73.5114 19.151H71.5605L69.6468 15.9893L67.7275 19.151H65.8509L68.6983 14.8637ZM74.5415 10.7511H76.9175C78.0213 10.7511 78.8677 10.9724 79.4567 11.4151C80.0458 11.8577 80.3409 12.4966 80.3421 13.3316C80.3544 13.8432 80.2213 14.348 79.9579 14.7883C79.7025 15.2009 79.3317 15.5312 78.8906 15.7392C78.3997 15.9673 77.8624 16.0806 77.3203 16.0702C76.9589 16.0689 76.5984 16.0338 76.2437 15.9654V19.151H74.5415V10.7511ZM78.2205 14.4296C78.3635 14.2892 78.4743 14.1199 78.5454 13.9333C78.6165 13.7467 78.6462 13.5472 78.6326 13.3481C78.6326 12.865 78.486 12.5193 78.1927 12.3108C77.9013 12.1011 77.4669 11.9963 76.8933 11.9963H76.2455V14.7368C76.4949 14.7821 76.7475 14.8074 77.001 14.8122C77.5381 14.8122 77.9446 14.6871 78.2205 14.437V14.4296ZM81.7473 10.7511H83.4494V17.7292H86.8444L86.7219 19.151H81.7473V10.7511ZM89.1071 18.739C88.4882 18.3981 87.986 17.8819 87.6648 17.2566C87.3208 16.5678 87.1501 15.8067 87.1674 15.0384C87.1488 14.2324 87.3318 13.4344 87.7001 12.7154C88.0463 12.0619 88.5823 11.5263 89.2389 11.1778C89.9664 10.7979 90.7796 10.608 91.6018 10.6261C92.3831 10.6047 93.1565 10.7853 93.8459 11.1502C94.4612 11.4884 94.9608 12.0007 95.2808 12.6216C95.6218 13.3074 95.7912 14.0644 95.7745 14.8287C95.7942 15.6429 95.6099 16.4493 95.2381 17.1756C94.8921 17.8292 94.3569 18.3653 93.7012 18.7151C92.9803 19.0886 92.1756 19.2746 91.3624 19.2558C90.578 19.2808 89.8007 19.1027 89.1071 18.739ZM92.8417 17.5729C93.2254 17.3064 93.5216 16.9342 93.6937 16.5025C93.8931 16.0073 93.9909 15.4777 93.9814 14.9446C93.9894 14.4237 93.9039 13.9056 93.729 13.4144C93.5758 12.9846 93.2958 12.6103 92.9253 12.3402C92.5075 12.0595 92.0096 11.9196 91.5053 11.9411C91.0038 11.9252 90.51 12.0669 90.0946 12.3458C89.7132 12.6202 89.4169 12.9948 89.2389 13.4272C89.0422 13.9026 88.9444 14.4125 88.9512 14.9262C88.9423 15.4551 89.0356 15.9807 89.2259 16.4749C89.3914 16.9092 89.6826 17.2854 90.063 17.5564C90.4708 17.8315 90.9565 17.9707 91.4496 17.9536C91.942 17.9705 92.4278 17.8377 92.8417 17.5729ZM90.3693 10.1258L91.9025 8.30859L93.5954 8.45389L91.4347 10.2527L90.3693 10.1258ZM97.3356 10.7511H100.12C101.13 10.7511 101.889 10.9455 102.397 11.3342C102.649 11.5292 102.849 11.7816 102.982 12.0697C103.114 12.3579 103.174 12.6734 103.157 12.9895C103.165 13.3676 103.087 13.7428 102.929 14.0872C102.771 14.4316 102.538 14.7366 102.245 14.9796C102.01 15.1777 101.743 15.3367 101.456 15.4504L104.038 19.1583H102.082L99.9807 15.8845H99.0377V19.151H97.3356V10.7511ZM99.7486 14.6375C100.047 14.6453 100.343 14.5822 100.612 14.4535C100.855 14.3367 101.058 14.1528 101.198 13.9238C101.34 13.6829 101.412 13.408 101.406 13.1293C101.418 12.9684 101.391 12.8071 101.326 12.6591C101.262 12.5111 101.162 12.3809 101.035 12.2795C100.719 12.0786 100.346 11.9838 99.9714 12.0092H99.021V14.6375H99.7486ZM109.792 17.0211H106.548L105.781 19.151H104.066L107.357 10.7456H109.028L112.387 19.151H110.567L109.792 17.0211ZM107.008 15.7226H109.308L108.504 13.5008C108.387 13.1955 108.272 12.8368 108.159 12.4285C108.064 12.7669 107.953 13.1238 107.825 13.4953L107.008 15.7226ZM113.427 10.7511H115.131V17.7292H118.526L118.403 19.151H113.427V10.7511ZM120.794 18.739C120.175 18.3982 119.672 17.882 119.35 17.2566C119.006 16.5678 118.835 15.8067 118.853 15.0384C118.834 14.2324 119.017 13.4344 119.385 12.7154C119.73 12.0632 120.263 11.5278 120.917 11.1778C121.643 10.7977 122.456 10.6078 123.278 10.6261C124.06 10.6047 124.834 10.7853 125.524 11.1502C126.139 11.4882 126.638 12.0006 126.957 12.6216C127.299 13.3069 127.469 14.0642 127.452 14.8287C127.471 15.6431 127.286 16.4495 126.914 17.1756C126.569 17.8295 126.033 18.3657 125.377 18.7151C124.656 19.0888 123.852 19.2749 123.038 19.2558C122.258 19.2795 121.484 19.1013 120.794 18.739ZM124.529 17.5729C124.914 17.3072 125.213 16.935 125.386 16.5025C125.585 16.0071 125.682 15.4776 125.672 14.9446C125.681 14.4239 125.596 13.9057 125.422 13.4144C125.268 12.9844 124.987 12.6102 124.616 12.3402C124.198 12.0595 123.7 11.9196 123.196 11.9411C122.695 11.9252 122.201 12.0669 121.785 12.3458C121.397 12.617 121.093 12.992 120.911 13.4272C120.714 13.9025 120.615 14.4124 120.622 14.9262C120.613 15.4551 120.706 15.9807 120.896 16.4749C121.062 16.9088 121.354 17.2848 121.733 17.5564C122.141 17.831 122.627 17.9701 123.12 17.9536C123.616 17.9728 124.106 17.8399 124.523 17.5729H124.529ZM132.755 10.7511H137.854L137.713 12.114H134.459V14.196H137.52V15.467H134.459V17.7752H137.895L137.773 19.151H132.761L132.755 10.7511ZM139.518 10.7511H141.478L145.4 16.9807C145.361 16.2854 145.342 15.7153 145.34 15.2702V10.7511H146.905V19.151H145.003L141.015 12.8221C141.058 13.5578 141.079 14.2108 141.079 14.7938V19.151H139.518V10.7511ZM71.6589 38.5404H65.0026L63.3728 42.9546H60.4456L66.9646 26.4749H69.7322L76.3996 42.9528H73.3239L71.6589 38.5404ZM65.8509 36.3002H70.8199L69.0398 31.5807C68.7923 30.9283 68.5516 30.208 68.3177 29.4195C68.1024 30.1172 67.8692 30.8302 67.6179 31.5586L65.8509 36.3002ZM77.7305 33.6848C77.7305 32.775 77.6995 31.7738 77.6377 30.6813H80.292C80.3913 31.1967 80.4601 31.7175 80.4981 32.241C81.6006 31.0491 82.8635 30.4538 84.2866 30.455C85.1362 30.441 85.9708 30.6786 86.6834 31.1373C87.396 31.596 87.9542 32.2551 88.2866 33.03C88.7198 33.9226 88.9357 35.0544 88.9345 36.4253C88.9345 37.8586 88.687 39.0848 88.192 40.1038C87.7507 41.0621 87.029 41.8669 86.1205 42.4139C85.1866 42.9482 84.1229 43.2192 83.0448 43.1974C82.1966 43.1964 81.3546 43.0547 80.5537 42.778V47.8489L77.7305 48.0824V33.6848ZM85.185 39.9566C85.7628 39.1878 86.0518 38.064 86.0518 36.5853C86.0518 35.2132 85.8123 34.2175 85.3334 33.5983C85.1135 33.3038 84.825 33.0663 84.4924 32.9061C84.1598 32.746 83.793 32.668 83.4234 32.6787C82.8891 32.6743 82.3627 32.8073 81.8958 33.0649C81.4029 33.3429 80.9543 33.6919 80.5649 34.1004V40.6739C80.8797 40.8209 81.2112 40.9296 81.5524 40.9976C81.9183 41.0763 82.2916 41.1163 82.6661 41.1172C83.7613 41.1135 84.5978 40.7267 85.1757 39.9566H85.185ZM90.7498 33.6848C90.7498 32.775 90.7189 31.7738 90.657 30.6813H93.3225C93.4218 31.1967 93.4905 31.7175 93.5285 32.241C94.6311 31.0491 95.8939 30.4538 97.317 30.455C98.1667 30.441 99.0013 30.6786 99.7139 31.1373C100.426 31.596 100.985 32.2551 101.317 33.03C101.75 33.9226 101.966 35.0544 101.965 36.4253C101.965 37.8586 101.717 39.0848 101.222 40.1038C100.781 41.0621 100.059 41.8669 99.1509 42.4139C98.217 42.9482 97.1534 43.2192 96.0752 43.1974C95.2271 43.1964 94.3851 43.0547 93.5842 42.778V47.8489L90.7498 48.088V33.6848ZM98.2043 39.9566C98.7859 39.1915 99.0767 38.0677 99.0767 36.5853C99.0767 35.2132 98.8372 34.2175 98.3583 33.5983C98.1384 33.3038 97.8499 33.0663 97.5173 32.9061C97.1847 32.746 96.8179 32.668 96.4483 32.6787C95.914 32.6745 95.3877 32.8076 94.9207 33.0649C94.4278 33.3429 93.9792 33.6919 93.5898 34.1004V40.6739C93.9046 40.8209 94.2361 40.9296 94.5773 40.9976C94.9432 41.0762 95.3166 41.1163 95.691 41.1172C96.7886 41.1135 97.6264 40.7267 98.2043 39.9566ZM107.311 42.1748C106.099 41.5153 105.116 40.5106 104.487 39.2908C103.83 38.0401 103.502 36.562 103.502 34.8564C103.502 33.0061 103.881 31.4348 104.638 30.1424C105.353 28.8884 106.43 27.8745 107.73 27.2308C109.096 26.5684 110.6 26.2351 112.12 26.2579C113.042 26.2541 113.961 26.3591 114.858 26.5705C115.696 26.7688 116.51 27.0568 117.286 27.4295L116.564 29.5906C115.053 28.877 113.617 28.5208 112.256 28.522C111.196 28.4988 110.148 28.7526 109.219 29.2577C108.34 29.758 107.634 30.5092 107.192 31.4133C106.712 32.3623 106.471 33.5076 106.47 34.849C106.45 35.9171 106.64 36.9788 107.027 37.9757C107.374 38.8577 107.987 39.6122 108.783 40.1369C109.582 40.669 110.59 40.9345 111.806 40.9333C112.361 40.9327 112.914 40.8872 113.46 40.7972C113.988 40.7117 114.506 40.5781 115.008 40.398V37.0616H111.157V34.8784H117.756V41.8161C116.799 42.2587 115.797 42.5984 114.767 42.8295C113.745 43.061 112.699 43.1788 111.651 43.1808C109.982 43.1808 108.536 42.8455 107.311 42.1748ZM127.972 42.9528C127.868 42.4164 127.806 41.8728 127.786 41.3269C127.312 41.8734 126.732 42.32 126.081 42.6401C125.347 43.0085 124.534 43.1941 123.712 43.1808C123.04 43.1897 122.374 43.0476 121.765 42.7652C121.186 42.4938 120.701 42.0586 120.371 41.5145C120.011 40.8947 119.832 40.1877 119.855 39.4729C119.855 38.2823 120.288 37.3326 121.154 36.6239C122.02 35.9152 123.463 35.5608 125.481 35.5608C126.234 35.5605 126.986 35.614 127.731 35.7208V35.4817C127.731 34.3966 127.497 33.6327 127.031 33.19C126.564 32.7474 125.895 32.5254 125.023 32.5242C124.367 32.5315 123.715 32.6193 123.081 32.7854C122.458 32.9383 121.851 33.1476 121.267 33.4107L120.82 31.3636C121.465 31.0923 122.134 30.8829 122.819 30.7383C123.677 30.5457 124.555 30.4506 125.435 30.455C126.369 30.4293 127.299 30.5939 128.167 30.9388C128.929 31.2716 129.549 31.8569 129.923 32.5941C130.344 33.3801 130.554 34.4358 130.554 35.7613V40.6482C130.554 41.1558 130.585 41.9252 130.647 42.9564L127.972 42.9528ZM126.274 40.6794C126.821 40.4289 127.312 40.0732 127.72 39.6329V37.3578C127.091 37.2838 126.459 37.2421 125.826 37.2327C124.654 37.2327 123.845 37.4203 123.398 37.7955C123.177 37.9815 123.002 38.215 122.885 38.4782C122.769 38.7415 122.715 39.0275 122.726 39.3147C122.726 39.9278 122.889 40.3772 123.215 40.6629C123.584 40.9699 124.058 41.1263 124.54 41.1006C125.142 41.0913 125.735 40.9473 126.274 40.6794ZM133.023 40.0081V25.5074L135.846 25.2794V39.5078C135.846 40.0302 135.935 40.3999 136.117 40.6114C136.225 40.726 136.358 40.8148 136.506 40.8709C136.654 40.927 136.813 40.9489 136.971 40.9351C137.222 40.9224 137.472 40.8804 137.713 40.81L138.047 42.8332C137.73 42.9516 137.401 43.0372 137.066 43.0889C136.703 43.1509 136.336 43.1829 135.969 43.1845C134.006 43.1821 133.024 42.1233 133.023 40.0081ZM140.082 40.0081V25.5074L142.905 25.2794V39.5078C142.905 40.0302 142.994 40.3999 143.176 40.6114C143.284 40.726 143.417 40.8148 143.565 40.8709C143.713 40.927 143.872 40.9489 144.03 40.9351C144.282 40.9224 144.531 40.8804 144.772 40.81L145.107 42.8332C144.789 42.9516 144.46 43.0372 144.125 43.0889C143.762 43.1509 143.395 43.1829 143.028 43.1845C141.065 43.1821 140.083 42.1233 140.082 40.0081ZM156.864 37.1757H148.76C148.889 39.7506 150.127 41.0381 152.472 41.0381C153.073 41.0351 153.671 40.9642 154.256 40.8266C154.855 40.6899 155.44 40.5016 156.006 40.2638L156.619 42.1803C155.159 42.8639 153.561 43.2063 151.947 43.1808C150.63 43.1808 149.521 42.9356 148.618 42.4451C147.729 41.9674 147.014 41.2232 146.577 40.319C146.121 39.3932 145.894 38.2786 145.895 36.9752C145.895 35.6178 146.136 34.453 146.617 33.4806C147.053 32.5494 147.755 31.7657 148.637 31.2275C149.536 30.7029 150.564 30.4355 151.607 30.455C152.776 30.455 153.754 30.726 154.54 31.268C155.321 31.807 155.928 32.5599 156.285 33.4346C156.675 34.3812 156.872 35.3953 156.864 36.4179V37.1757ZM154.096 35.3898C154.044 34.4088 153.797 33.6731 153.354 33.1827C153.129 32.9383 152.854 32.7458 152.546 32.6187C152.239 32.4916 151.906 32.4329 151.574 32.447C151.239 32.4382 150.906 32.4991 150.596 32.6258C150.287 32.7525 150.008 32.9423 149.777 33.1827C149.299 33.6731 148.99 34.4045 148.849 35.3769L154.096 35.3898ZM159.149 33.7639C159.149 33.0895 159.118 32.0619 159.056 30.6813H161.706C161.753 31.0234 161.797 31.4298 161.84 31.9044C161.883 32.3789 161.911 32.7633 161.925 33.0594C162.211 32.5811 162.535 32.1266 162.894 31.7002C163.208 31.3363 163.585 31.0316 164.008 30.8008C164.455 30.5655 164.954 30.4465 165.46 30.455C165.839 30.4473 166.218 30.4931 166.585 30.5911L166.23 33.0245C165.932 32.9384 165.622 32.8962 165.311 32.8994C164.691 32.8863 164.082 33.0629 163.566 33.4052C162.946 33.8699 162.407 34.4329 161.972 35.0716V42.9528H159.149V33.7639ZM168.287 47.9758C167.94 47.9187 167.598 47.837 167.264 47.7311L167.78 45.6841C167.966 45.7356 168.212 45.7871 168.504 45.8367C168.777 45.8845 169.053 45.9091 169.33 45.9103C170.585 45.9103 171.526 45.1102 172.153 43.5101L172.339 43.0558L167.771 30.6813H170.813L173.109 37.5969C173.406 38.4873 173.647 39.3952 173.831 40.3153C174.046 39.4275 174.299 38.5404 174.588 37.6539L176.918 30.6813H179.776L175.218 43.1128C174.875 44.1139 174.409 45.069 173.829 45.9563C173.386 46.6279 172.781 47.1792 172.068 47.5601C171.305 47.9268 170.465 48.106 169.618 48.0824C169.172 48.0851 168.726 48.0494 168.287 47.9758Z" fill="white"/>
<path fill-rule="evenodd" clip-rule="evenodd" d="M39.3878 10.375H23.3781C15.8364 10.375 13.0781 13.1081 13.0781 20.581V36.4446C13.0781 43.9175 15.8364 46.6524 23.3781 46.6524H39.3841C46.9258 46.6524 49.6897 43.9175 49.6897 36.4446V20.581C49.6989 13.1081 46.9295 10.375 39.3878 10.375Z" fill="#CE0E2D"/>
<path d="M20.3289 28.5085H21.2997V33.2501H20.3289V31.3318H18.1441V33.2575H17.1641V28.5085H18.1441V30.4213H20.3363L20.3289 28.5085ZM25.7991 31.2233C25.7991 31.9939 25.413 32.4059 24.7113 32.4059C24.0097 32.4059 23.618 31.9829 23.618 31.1901V28.5177H22.6454V31.2306C22.6454 32.5641 23.3879 33.3292 24.6983 33.3292C26.0088 33.3292 26.7699 32.5494 26.7699 31.1901V28.5085H25.7991V31.2233ZM37.0235 31.775L35.9376 28.5085H35.1431L34.0573 31.7695L32.9937 28.5177H31.9616L33.6322 33.2575H34.4359L35.5255 30.1436L36.6132 33.2575H37.4244L39.095 28.5177H38.0889L37.0235 31.775ZM40.8305 31.2233H42.5976V30.3478H40.8305V29.3766H43.3883V28.5122H39.8616V33.2501H43.4756V32.3857H40.8305V31.2233ZM44.645 33.2575H45.6028V28.5085H44.645V33.2575ZM28.6817 32.2735L28.2474 33.2611H27.2562L29.3722 28.5085H30.2279L32.3291 33.2483H31.3101L30.8795 32.2606L28.6817 32.2735ZM29.0437 31.4182H30.5119L29.7695 29.7206L29.0437 31.4182ZM31.3843 22.4758C29.7686 22.4743 28.2195 21.8377 27.077 20.7056C25.9344 19.5735 25.2919 18.0385 25.2905 16.4375H26.1517C26.1517 17.8126 26.703 19.1314 27.6843 20.1037C28.6656 21.0761 29.9966 21.6224 31.3843 21.6224C32.7721 21.6224 34.1031 21.0761 35.0844 20.1037C36.0657 19.1314 36.617 17.8126 36.617 16.4375H37.4782C37.4768 18.0385 36.8342 19.5735 35.6917 20.7056C34.5492 21.8377 33.0001 22.4743 31.3843 22.4758Z" fill="white"/>
</svg>
