<svg width="8" height="14" viewBox="0 0 8 14" fill="none" xmlns="http://www.w3.org/2000/svg">
<path d="M6.93464 0.998889H5.33464C3.86797 0.932222 2.53464 2.06556 2.46797 3.59889C2.46797 3.73222 2.46797 3.86556 2.46797 3.99889V5.33222H0.934635C0.801302 5.26556 0.667969 5.39889 0.667969 5.53222V7.53222C0.667969 7.66556 0.801302 7.79889 0.934635 7.79889H2.46797V12.7989C2.46797 12.9322 2.6013 13.0656 2.73464 13.0656H4.8013C4.93464 13.0656 5.06797 12.9322 5.06797 12.8656V7.86556H6.86797C7.0013 7.86556 7.13464 7.73222 7.13464 7.59889V5.59889C7.13464 5.46556 7.0013 5.33222 6.86797 5.33222H5.0013V4.13222C5.0013 3.59889 5.13464 3.33222 5.86797 3.33222H6.93464C7.06797 3.33222 7.2013 3.19889 7.2013 3.06556V1.26556C7.13464 1.13222 7.06797 0.998889 6.93464 0.998889Z" fill="white"/>
</svg>
