<svg width="14" height="14" viewBox="0 0 14 14" fill="none" xmlns="http://www.w3.org/2000/svg">
<path d="M8.98333 1.75H5.01667C3.20833 1.75 1.75 3.20833 1.75 5.01667V8.98333C1.75 10.7917 3.20833 12.25 5.01667 12.25H8.98333C10.7917 12.25 12.25 10.7917 12.25 8.98333V5.01667C12.25 3.20833 10.7917 1.75 8.98333 1.75ZM11.2583 8.98333C11.2583 10.2667 10.2083 11.2583 8.98333 11.2583H5.01667C3.73333 11.2583 2.74167 10.2083 2.74167 8.98333V5.01667C2.74167 3.73333 3.79167 2.74167 5.01667 2.74167H8.98333C10.2667 2.74167 11.2583 3.79167 11.2583 5.01667V8.98333Z" fill="white"/>
<path d="M7 4.375C5.54167 4.375 4.375 5.54167 4.375 7C4.375 8.45833 5.54167 9.625 7 9.625C8.45833 9.625 9.625 8.45833 9.625 7C9.625 5.54167 8.45833 4.375 7 4.375ZM7 8.63333C6.06667 8.63333 5.36667 7.875 5.36667 7C5.36667 6.125 6.125 5.36667 7 5.36667C7.875 5.36667 8.63333 6.125 8.63333 7C8.63333 7.93333 7.93333 8.63333 7 8.63333Z" fill="white"/>
<path d="M9.79922 4.55156C9.99252 4.55156 10.1492 4.39486 10.1492 4.20156C10.1492 4.00826 9.99252 3.85156 9.79922 3.85156C9.60592 3.85156 9.44922 4.00826 9.44922 4.20156C9.44922 4.39486 9.60592 4.55156 9.79922 4.55156Z" fill="white"/>
</svg>
