<svg width="12" height="10" viewBox="0 0 12 10" fill="none" xmlns="http://www.w3.org/2000/svg">
<path d="M11.2497 1.90852C10.8414 2.08352 10.4331 2.20019 10.0247 2.25852C10.4914 1.96686 10.7831 1.55852 10.9581 1.09186C10.5497 1.32519 10.0831 1.50019 9.61641 1.61686C8.79974 0.741855 7.45807 0.741855 6.58307 1.55852C5.99974 2.08352 5.76641 2.84186 5.94141 3.60019C4.19141 3.48352 2.55807 2.66686 1.44974 1.32519C0.866406 2.31686 1.15807 3.54186 2.14974 4.18352C1.79974 4.18352 1.44974 4.06686 1.15807 3.89186C1.15807 4.94186 1.91641 5.81685 2.90807 5.99185C2.73307 6.05019 2.49974 6.05019 2.32474 6.05019C2.20807 6.05019 2.03307 6.05019 1.91641 5.99185C2.20807 6.86685 3.02474 7.45019 3.89974 7.50852C3.14141 8.09185 2.20807 8.44185 1.21641 8.44185C1.04141 8.44185 0.866406 8.44185 0.691406 8.44185C3.54974 10.2502 7.34141 9.43352 9.14974 6.57519C9.79141 5.58352 10.0831 4.47519 10.1414 3.36686V3.30852V3.01686C10.6081 2.72519 10.9581 2.37519 11.2497 1.90852Z" fill="white"/>
</svg>
